<svg id="Calque_1" data-name="Calque 1" xmlns="http://www.w3.org/2000/svg" viewBox="0 0 1940 1049.247">
  <line x1="118.452" y1="587.326" x2="1893.227" y2="587.326" style="fill: none;stroke: #cfd0d0;stroke-linejoin: round;stroke-width: 2.39294958909229px;stroke-dasharray: 15.905137062072754,7.9286394119262695"/>
  <g>
    <path d="M24.784,63.764h5.041L43.218,98.039H38.177L34.433,87.718h-14.5L16.1,98.039h-4.7ZM21.376,83.878H32.993L27.28,67.893h-.1Z" style="fill: #181716"/>
    <path d="M45.423,73.221h3.84v3.936h.1a8.64,8.64,0,0,1,8.065-4.512c6.529,0,8.545,3.744,8.545,9.073V98.039H61.888v-16.8a4.676,4.676,0,0,0-5.04-4.993c-4.945,0-7.345,3.313-7.345,7.777V98.039h-4.08Z" style="fill: #181716"/>
    <path d="M82.336,72.645c7.872,0,12.049,5.712,12.049,13.009,0,7.249-4.177,12.961-12.049,12.961S70.287,92.9,70.287,85.654C70.287,78.357,74.463,72.645,82.336,72.645Zm0,22.37c4.272,0,7.728-3.361,7.728-9.361,0-6.049-3.456-9.409-7.728-9.409s-7.729,3.36-7.729,9.409C74.607,91.654,78.063,95.015,82.336,95.015Z" style="fill: #181716"/>
    <path d="M98.7,73.221h3.84v3.648h.1a9.15,9.15,0,0,1,8.017-4.224c3.024,0,5.808,1.2,6.816,4.224a9.184,9.184,0,0,1,7.777-4.224c4.944,0,8.257,2.064,8.257,7.2V98.039h-4.081V81.766c0-3.073-.816-5.521-4.8-5.521-3.937,0-6.48,2.5-6.48,6.337V98.039h-4.081V81.766c0-3.217-1.008-5.521-4.656-5.521a6.693,6.693,0,0,0-6.625,6.337V98.039H98.7Z" style="fill: #181716"/>
    <path d="M161.152,97.943a5.5,5.5,0,0,1-2.928.672c-2.112,0-3.456-1.152-3.456-3.84a11.014,11.014,0,0,1-8.737,3.84c-4.512,0-8.209-2.016-8.209-6.961,0-5.616,4.177-6.816,8.4-7.632,4.512-.864,8.353-.576,8.353-3.648,0-3.553-2.929-4.129-5.521-4.129-3.456,0-6,1.056-6.192,4.7h-4.08c.239-6.145,4.992-8.305,10.512-8.305,4.465,0,9.313,1.008,9.313,6.816V92.23c0,1.921,0,2.785,1.3,2.785a3.5,3.5,0,0,0,1.248-.24Zm-6.624-12.721c-1.584,1.152-4.656,1.2-7.393,1.68-2.688.48-4.992,1.44-4.992,4.465,0,2.688,2.3,3.648,4.8,3.648,5.377,0,7.585-3.361,7.585-5.617Z" style="fill: #181716"/>
    <path d="M164.7,63.764h4.08V98.039H164.7Z" style="fill: #181716"/>
    <path d="M178.958,68.756h-4.081V63.764h4.081Zm-4.081,4.465h4.081V98.039h-4.081Z" style="fill: #181716"/>
    <path d="M205.982,90.167c-1.1,5.472-5.04,8.448-10.608,8.448-7.921,0-11.666-5.472-11.906-13.057,0-7.441,4.9-12.913,11.665-12.913,8.785,0,11.473,8.209,11.233,14.209H187.789c-.144,4.32,2.3,8.161,7.729,8.161,3.36,0,5.712-1.632,6.432-4.848Zm-3.936-6.913a7.141,7.141,0,0,0-7.152-7.009c-4.273,0-6.817,3.216-7.105,7.009Z" style="fill: #181716"/>
    <path d="M243.806,98.039h-4.08v-3.36h-.1c-1.344,2.736-4.512,3.936-7.92,3.936-7.633,0-11.425-6.049-11.425-13.057s3.744-12.913,11.329-12.913c2.544,0,6.192.96,8.016,3.888h.1V63.764h4.08Zm-11.521-3.024c5.472,0,7.585-4.7,7.585-9.361,0-4.9-2.209-9.409-7.825-9.409-5.568,0-7.441,4.753-7.441,9.6C224.6,90.5,227,95.015,232.285,95.015Z" style="fill: #181716"/>
    <path d="M270.781,90.167c-1.1,5.472-5.04,8.448-10.609,8.448-7.921,0-11.665-5.472-11.905-13.057,0-7.441,4.9-12.913,11.665-12.913,8.785,0,11.473,8.209,11.233,14.209H252.587c-.144,4.32,2.305,8.161,7.729,8.161,3.361,0,5.713-1.632,6.433-4.848Zm-3.936-6.913a7.141,7.141,0,0,0-7.153-7.009c-4.272,0-6.817,3.216-7.105,7.009Z" style="fill: #181716"/>
    <path d="M277.4,90.214c.144,3.649,3.312,4.8,6.673,4.8,2.544,0,6-.576,6-3.7,0-3.168-4.033-3.7-8.113-4.608-4.032-.912-8.112-2.256-8.112-7.008,0-4.993,4.944-7.057,9.264-7.057,5.473,0,9.842,1.728,10.177,7.776h-4.08c-.288-3.168-3.072-4.176-5.76-4.176-2.449,0-5.281.672-5.281,3.169,0,2.928,4.32,3.408,8.113,4.32,4.08.912,8.112,2.256,8.112,7.057,0,5.9-5.52,7.824-10.561,7.824-5.568,0-10.273-2.256-10.512-8.4Z" style="fill: #181716"/>
    <path d="M315.515,73.221h4.944v3.6h-4.944V92.23c0,1.873.528,2.209,3.072,2.209h1.872v3.6h-3.12c-4.224,0-5.9-.864-5.9-5.424V76.821H307.21v-3.6h4.225V65.78h4.08Z" style="fill: #181716"/>
    <path d="M345.66,90.167c-1.1,5.472-5.041,8.448-10.609,8.448-7.921,0-11.665-5.472-11.9-13.057,0-7.441,4.9-12.913,11.665-12.913,8.784,0,11.473,8.209,11.232,14.209H327.466c-.144,4.32,2.3,8.161,7.729,8.161,3.36,0,5.712-1.632,6.432-4.848Zm-3.937-6.913a7.141,7.141,0,0,0-7.152-7.009c-4.273,0-6.817,3.216-7.105,7.009Z" style="fill: #181716"/>
    <path d="M349.785,73.221h3.84v3.648h.1a9.147,9.147,0,0,1,8.016-4.224c3.024,0,5.809,1.2,6.817,4.224a9.183,9.183,0,0,1,7.777-4.224c4.944,0,8.256,2.064,8.256,7.2V98.039h-4.08V81.766c0-3.073-.816-5.521-4.8-5.521-3.937,0-6.481,2.5-6.481,6.337V98.039h-4.081V81.766c0-3.217-1.008-5.521-4.656-5.521a6.693,6.693,0,0,0-6.624,6.337V98.039h-4.081Z" style="fill: #181716"/>
    <path d="M390.345,73.221h4.08v3.36h.1c1.345-2.736,4.513-3.936,7.921-3.936,7.633,0,11.425,6.048,11.425,13.057s-3.744,12.913-11.329,12.913c-2.544,0-6.192-.96-8.017-3.888h-.1v12.817h-4.08Zm11.521,3.024c-5.472,0-7.584,4.7-7.584,9.361,0,4.9,2.208,9.409,7.824,9.409,5.569,0,7.441-4.753,7.441-9.6C409.547,80.758,407.146,76.245,401.866,76.245Z" style="fill: #181716"/>
    <path d="M439.354,90.167c-1.1,5.472-5.04,8.448-10.608,8.448-7.921,0-11.665-5.472-11.906-13.057,0-7.441,4.9-12.913,11.665-12.913,8.785,0,11.474,8.209,11.233,14.209H421.161c-.144,4.32,2.3,8.161,7.729,8.161,3.36,0,5.712-1.632,6.432-4.848Zm-3.936-6.913a7.141,7.141,0,0,0-7.152-7.009c-4.273,0-6.817,3.216-7.105,7.009Zm-6.192-20.306h5.232l-6.289,6.864H425.1Z" style="fill: #181716"/>
    <path d="M443.336,73.221h3.84v5.232h.1c1.969-3.984,4.7-5.952,9.121-5.808v4.32c-6.577,0-8.976,3.744-8.976,10.033V98.039h-4.081Z" style="fill: #181716"/>
    <path d="M480.921,97.943a5.5,5.5,0,0,1-2.928.672c-2.112,0-3.456-1.152-3.456-3.84a11.014,11.014,0,0,1-8.737,3.84c-4.512,0-8.209-2.016-8.209-6.961,0-5.616,4.177-6.816,8.4-7.632,4.512-.864,8.353-.576,8.353-3.648,0-3.553-2.928-4.129-5.521-4.129-3.456,0-6,1.056-6.192,4.7h-4.081c.241-6.145,4.993-8.305,10.513-8.305,4.465,0,9.313,1.008,9.313,6.816V92.23c0,1.921,0,2.785,1.3,2.785a3.5,3.5,0,0,0,1.248-.24ZM474.3,85.222c-1.584,1.152-4.656,1.2-7.393,1.68-2.688.48-4.992,1.44-4.992,4.465,0,2.688,2.3,3.648,4.8,3.648,5.377,0,7.585-3.361,7.585-5.617Z" style="fill: #181716"/>
    <path d="M489.9,73.221h4.944v3.6H489.9V92.23c0,1.873.527,2.209,3.072,2.209h1.872v3.6h-3.12c-4.225,0-5.905-.864-5.905-5.424V76.821h-4.224v-3.6h4.224V65.78H489.9Z" style="fill: #181716"/>
    <path d="M519.416,98.039h-3.84V94.1h-.1a8.638,8.638,0,0,1-8.064,4.512c-6.529,0-8.545-3.744-8.545-9.073V73.221h4.081v16.8a4.676,4.676,0,0,0,5.04,4.993c4.945,0,7.344-3.312,7.344-7.777V73.221h4.081Z" style="fill: #181716"/>
    <path d="M524.934,73.221h3.84v5.232h.1c1.967-3.984,4.7-5.952,9.12-5.808v4.32c-6.576,0-8.976,3.744-8.976,10.033V98.039h-4.081Z" style="fill: #181716"/>
    <path d="M560.84,90.167c-1.1,5.472-5.041,8.448-10.609,8.448-7.921,0-11.665-5.472-11.9-13.057,0-7.441,4.9-12.913,11.665-12.913,8.784,0,11.473,8.209,11.233,14.209H542.646c-.144,4.32,2.3,8.161,7.729,8.161,3.36,0,5.712-1.632,6.433-4.848ZM556.9,83.254a7.141,7.141,0,0,0-7.152-7.009c-4.272,0-6.817,3.216-7.105,7.009Z" style="fill: #181716"/>
    <path d="M567.461,90.214c.144,3.649,3.313,4.8,6.673,4.8,2.544,0,6-.576,6-3.7,0-3.168-4.033-3.7-8.113-4.608-4.032-.912-8.113-2.256-8.113-7.008,0-4.993,4.945-7.057,9.265-7.057,5.472,0,9.841,1.728,10.177,7.776h-4.08c-.289-3.168-3.073-4.176-5.761-4.176-2.448,0-5.281.672-5.281,3.169,0,2.928,4.321,3.408,8.113,4.32,4.081.912,8.113,2.256,8.113,7.057,0,5.9-5.52,7.824-10.561,7.824-5.568,0-10.273-2.256-10.513-8.4Z" style="fill: #181716"/>
    <path d="M606.678,107.544c-4.608-7.2-7.536-14.065-7.536-22.466a37.758,37.758,0,0,1,7.536-22.13h3.12a39.714,39.714,0,0,0-6.336,22.13,40.467,40.467,0,0,0,6.336,22.466Z" style="fill: #181716"/>
    <path d="M611.765,73.221h3.84v5.232h.1c1.968-3.984,4.7-5.952,9.121-5.808v4.32c-6.577,0-8.977,3.744-8.977,10.033V98.039h-4.08Z" style="fill: #181716"/>
    <path d="M647.67,90.167c-1.1,5.472-5.04,8.448-10.608,8.448-7.921,0-11.666-5.472-11.906-13.057,0-7.441,4.9-12.913,11.665-12.913,8.785,0,11.473,8.209,11.233,14.209H629.477c-.144,4.32,2.3,8.161,7.729,8.161,3.36,0,5.712-1.632,6.432-4.848Zm-3.936-6.913a7.141,7.141,0,0,0-7.152-7.009c-4.273,0-6.817,3.216-7.105,7.009Zm-6.192-20.306h5.232l-6.289,6.864h-3.072Z" style="fill: #181716"/>
    <path d="M653.476,76.821H649.3v-3.6h4.176v-3.7c0-4.032,2.4-6.144,6.865-6.144a10.032,10.032,0,0,1,2.64.384v3.552a7.653,7.653,0,0,0-2.3-.336c-1.969,0-3.121.624-3.121,2.785v3.456h4.8v3.6h-4.8V98.039h-4.08Z" style="fill: #181716"/>
    <path d="M686.693,90.167c-1.1,5.472-5.04,8.448-10.609,8.448-7.92,0-11.665-5.472-11.9-13.057,0-7.441,4.9-12.913,11.665-12.913,8.785,0,11.473,8.209,11.233,14.209H668.5c-.145,4.32,2.3,8.161,7.729,8.161,3.36,0,5.712-1.632,6.432-4.848Zm-3.936-6.913a7.141,7.141,0,0,0-7.153-7.009c-4.272,0-6.816,3.216-7.1,7.009Zm-6.193-20.306H681.8l-6.289,6.864h-3.072Z" style="fill: #181716"/>
    <path d="M690.675,73.221h3.84v5.232h.1c1.969-3.984,4.7-5.952,9.121-5.808v4.32c-6.577,0-8.977,3.744-8.977,10.033V98.039h-4.08Z" style="fill: #181716"/>
    <path d="M726.58,90.167c-1.1,5.472-5.04,8.448-10.609,8.448-7.921,0-11.665-5.472-11.9-13.057,0-7.441,4.9-12.913,11.665-12.913,8.785,0,11.473,8.209,11.233,14.209H708.386c-.144,4.32,2.3,8.161,7.729,8.161,3.361,0,5.713-1.632,6.433-4.848Zm-3.936-6.913a7.142,7.142,0,0,0-7.153-7.009c-4.272,0-6.817,3.216-7.105,7.009Z" style="fill: #181716"/>
    <path d="M730.706,73.221h3.84v3.936h.1a8.639,8.639,0,0,1,8.065-4.512c6.528,0,8.544,3.744,8.544,9.073V98.039h-4.08v-16.8a4.676,4.676,0,0,0-5.041-4.993c-4.944,0-7.344,3.313-7.344,7.777V98.039h-4.08Z" style="fill: #181716"/>
    <path d="M773.763,81.189a5.777,5.777,0,0,0-6.144-4.944c-5.9,0-7.729,4.656-7.729,9.7,0,4.56,2.064,9.073,7.249,9.073,3.936,0,6.288-2.305,6.816-6.049h4.176c-.912,6.049-4.7,9.649-10.944,9.649-7.585,0-11.618-5.281-11.618-12.673,0-7.441,3.841-13.3,11.714-13.3,5.616,0,10.128,2.64,10.7,8.544Z" style="fill: #181716"/>
    <path d="M803.379,90.167c-1.1,5.472-5.041,8.448-10.609,8.448-7.921,0-11.665-5.472-11.9-13.057,0-7.441,4.9-12.913,11.665-12.913,8.784,0,11.473,8.209,11.233,14.209H785.185c-.144,4.32,2.3,8.161,7.729,8.161,3.36,0,5.712-1.632,6.433-4.848Zm-3.937-6.913a7.141,7.141,0,0,0-7.152-7.009c-4.272,0-6.817,3.216-7.105,7.009Z" style="fill: #181716"/>
    <path d="M832.994,98.039h-4.08V73.653h-8.833V70.389c4.656,0,8.88-1.248,9.793-6.385h3.12Z" style="fill: #181716"/>
    <path d="M855.217,64c7.441,0,10.322,4.369,10.322,8.689a7.883,7.883,0,0,1-4.705,7.057c4.08,1.3,6.048,4.272,6.048,8.5,0,6.577-4.992,10.369-11.28,10.369-6.529,0-11.569-3.408-11.569-10.369a8.589,8.589,0,0,1,5.952-8.5,7.7,7.7,0,0,1-4.753-7.057C845.232,67.076,849.985,64,855.217,64Zm.385,31.011c4.08,0,6.96-2.832,6.96-6.625,0-3.7-3.168-6.48-7.009-6.48-4.032,0-7.2,2.592-7.2,6.528C848.353,92.519,851.377,95.015,855.6,95.015Zm0-16.7c3.216,0,5.616-2.017,5.616-5.473,0-3.408-2.4-5.233-5.713-5.233-3.264,0-5.952,1.825-5.952,5.233C849.553,76.581,852.241,78.31,855.6,78.31Z" style="fill: #181716"/>
    <path d="M890.882,68.181H877.153l-1.824,9.792.1.1a8.611,8.611,0,0,1,6.336-2.448c6.049,0,10.993,3.888,10.993,11.665,0,5.761-3.984,11.329-11.9,11.329-5.9,0-10.705-3.6-10.85-9.745h4.081c.24,3.5,3.072,6.145,7.152,6.145,3.889,0,7.2-2.64,7.2-8.065a7.371,7.371,0,0,0-7.681-7.728,8.168,8.168,0,0,0-6.336,3.216l-3.5-.192,3.168-17.666h16.8Z" style="fill: #181716"/>
    <path d="M907.825,64c10.657,0,11.329,9.793,11.329,17.329,0,7.489-.672,17.282-11.329,17.282S896.5,88.822,896.5,81.333C896.5,73.8,897.168,64,907.825,64Zm0,31.011c6.961,0,7.008-8.641,7.008-13.729,0-5.041-.047-13.682-7.008-13.682s-7.009,8.641-7.009,13.682C900.816,86.374,900.865,95.015,907.825,95.015Z" style="fill: #181716"/>
    <path d="M923.041,82.774h13.873v3.84H923.041Z" style="fill: #181716"/>
    <path d="M955.921,98.039h-4.08V73.653h-8.833V70.389c4.657,0,8.881-1.248,9.793-6.385h3.12Z" style="fill: #181716"/>
    <path d="M971.472,89.831c.288,3.312,2.976,5.184,6.24,5.184,4.993,0,7.44-4.369,7.681-13.153l-.1-.1a8.921,8.921,0,0,1-7.873,4.7c-6.912,0-10.752-4.657-10.752-11.377,0-6.576,4.607-11.089,11.184-11.089,6.336,0,11.665,3.409,11.665,16.273,0,11.762-3.552,18.338-11.809,18.338-5.712,0-9.793-2.928-10.32-8.784ZM977.664,67.6c-4.849,0-6.672,3.889-6.672,8.065,0,3.745,2.783,7.2,6.72,7.2,4.272,0,6.961-3.456,6.961-7.489C984.673,71.205,982.225,67.6,977.664,67.6Z" style="fill: #181716"/>
    <path d="M1004.544,64c10.657,0,11.329,9.793,11.329,17.329,0,7.489-.672,17.282-11.329,17.282s-11.328-9.793-11.328-17.282C993.216,73.8,993.888,64,1004.544,64Zm0,31.011c6.961,0,7.009-8.641,7.009-13.729,0-5.041-.048-13.682-7.009-13.682s-7.008,8.641-7.008,13.682C997.536,86.374,997.584,95.015,1004.544,95.015Z" style="fill: #181716"/>
    <path d="M1030.752,64c10.657,0,11.329,9.793,11.329,17.329,0,7.489-.672,17.282-11.329,17.282s-11.328-9.793-11.328-17.282C1019.424,73.8,1020.1,64,1030.752,64Zm0,31.011c6.961,0,7.009-8.641,7.009-13.729,0-5.041-.048-13.682-7.009-13.682s-7.008,8.641-7.008,13.682C1023.744,86.374,1023.792,95.015,1030.752,95.015Z" style="fill: #181716"/>
    <path d="M1043.135,107.544a39.72,39.72,0,0,0,6.337-22.13,40.466,40.466,0,0,0-6.337-22.466h3.121c4.608,7.2,7.536,14.065,7.536,22.466a37.758,37.758,0,0,1-7.536,22.13Z" style="fill: #181716"/>
  </g>
  <g>
    <path d="M11.471,11.292H35.137v3.841h-19.1v10.9H33.841v3.84H16.032V41.727H35.281v3.84H11.471Z" style="fill: #181716"/>
    <path d="M39.647,20.749h3.84v3.937h.1a8.64,8.64,0,0,1,8.065-4.513c6.529,0,8.545,3.744,8.545,9.073V45.567H56.112v-16.8a4.676,4.676,0,0,0-5.04-4.993c-4.945,0-7.344,3.313-7.344,7.777V45.567H39.647Z" style="fill: #181716"/>
    <path d="M85.248,11.532a6.913,6.913,0,1,1-6.914,6.913A6.884,6.884,0,0,1,85.248,11.532Zm0,11.426a4.513,4.513,0,1,0-4.513-4.513A4.442,4.442,0,0,0,85.248,22.958Z" style="fill: #181716"/>
    <path d="M122.208,21.613c-.959-4.848-4.848-7.3-9.6-7.3-8.161,0-11.617,6.72-11.617,13.873,0,7.825,3.456,14.353,11.665,14.353,6,0,9.457-4.224,9.888-9.889h4.561c-.864,8.545-6.192,13.729-14.833,13.729-10.657,0-15.842-7.872-15.842-17.857,0-9.937,5.665-18.049,16.226-18.049,7.153,0,13.057,3.84,14.113,11.136Z" style="fill: #181716"/>
  </g>
  <line x1="121.827" y1="697.19" x2="1893.229" y2="697.19" style="fill: none;stroke: #cfd0d0;stroke-linejoin: round;stroke-width: 2.39294958909229px;stroke-dasharray: 15.881208419799805,7.904709815979004"/>
  <line x1="121.827" y1="477.463" x2="1893.229" y2="477.463" style="fill: none;stroke: #cfd0d0;stroke-linejoin: round;stroke-width: 2.39294958909229px;stroke-dasharray: 15.881208419799805,7.904709815979004"/>
  <line x1="121.827" y1="367.6" x2="1893.229" y2="367.6" style="fill: none;stroke: #cfd0d0;stroke-linejoin: round;stroke-width: 2.39294958909229px;stroke-dasharray: 15.881208419799805,7.904709815979004"/>
  <line x1="121.827" y1="257.732" x2="1893.229" y2="257.732" style="fill: none;stroke: #cfd0d0;stroke-linejoin: round;stroke-width: 2.39294958909229px;stroke-dasharray: 15.881208419799805,7.904709815979004"/>
  <line x1="121.827" y1="147.869" x2="1893.229" y2="147.869" style="fill: none;stroke: #cfd0d0;stroke-linejoin: round;stroke-width: 2.39294958909229px;stroke-dasharray: 15.881208419799805,7.904709815979004"/>
  <g>
    <path d="M35.738,143.761c-.276-5.759,3.078-10.038,9-10.038,4.893,0,8.76,2.88,8.76,8.158,0,5-3.315,7.519-6.787,9.719-3.512,2.16-7.182,3.959-7.853,7.479H53.219v3H34.949c.552-6.719,3.906-9.119,7.852-11.6,4.736-2.959,7.142-4.719,7.142-8.639a5.127,5.127,0,0,0-5.405-5.119c-3.907,0-5.564,3.64-5.446,7.039Z" style="fill: #181716"/>
    <path d="M58.785,157.639h4.38v4.039c0,3-1.3,5.4-4.341,6.279v-2a3.836,3.836,0,0,0,2.289-3.88H58.785Z" style="fill: #181716"/>
    <path d="M77.017,133.723c8.759,0,9.312,8.158,9.312,14.438,0,6.238-.553,14.4-9.312,14.4S67.7,154.4,67.7,148.161C67.7,141.881,68.257,133.723,77.017,133.723Zm0,25.836c5.721,0,5.76-7.2,5.76-11.438,0-4.2-.039-11.4-5.76-11.4s-5.762,7.2-5.762,11.4C71.255,152.36,71.3,159.559,77.017,159.559Z" style="fill: #181716"/>
  </g>
  <g>
    <path d="M48.049,271.281H44.7V250.965h-7.26v-2.72c3.828,0,7.3-1.04,8.049-5.319h2.565Z" style="fill: #181716"/>
    <path d="M58.785,266.842h4.38v4.039c0,3-1.3,5.4-4.341,6.279v-2a3.836,3.836,0,0,0,2.289-3.88H58.785Z" style="fill: #181716"/>
    <path d="M84.593,246.405H73.308l-1.5,8.159.079.08A7.025,7.025,0,0,1,77.1,252.6c4.971,0,9.036,3.24,9.036,9.719,0,4.8-3.276,9.438-9.786,9.438-4.854,0-8.8-3-8.918-8.118h3.354a5.534,5.534,0,0,0,5.88,5.119c3.195,0,5.918-2.2,5.918-6.719a6.1,6.1,0,0,0-6.313-6.439,6.688,6.688,0,0,0-5.209,2.679l-2.88-.159,2.6-14.718H84.593Z" style="fill: #181716"/>
  </g>
  <g>
    <path d="M48.049,380.477H44.7V360.16h-7.26v-2.72c3.828,0,7.3-1.04,8.049-5.319h2.565Z" style="fill: #181716"/>
    <path d="M58.785,376.037h4.38v4.04c0,3-1.3,5.4-4.341,6.278v-2a3.835,3.835,0,0,0,2.289-3.879H58.785Z" style="fill: #181716"/>
    <path d="M77.017,352.121c8.759,0,9.312,8.159,9.312,14.438,0,6.239-.553,14.4-9.312,14.4S67.7,372.8,67.7,366.559C67.7,360.28,68.257,352.121,77.017,352.121Zm0,25.836c5.721,0,5.76-7.2,5.76-11.438,0-4.2-.039-11.4-5.76-11.4s-5.762,7.2-5.762,11.4C71.255,370.758,71.3,377.957,77.017,377.957Z" style="fill: #181716"/>
  </g>
  <g>
    <path d="M44.972,461.324c8.759,0,9.312,8.159,9.312,14.438,0,6.239-.553,14.4-9.312,14.4s-9.313-8.159-9.313-14.4C35.659,469.483,36.212,461.324,44.972,461.324Zm0,25.836c5.721,0,5.76-7.2,5.76-11.438,0-4.2-.039-11.4-5.76-11.4s-5.762,7.2-5.762,11.4C39.21,479.961,39.25,487.16,44.972,487.16Z" style="fill: #181716"/>
    <path d="M58.785,485.24h4.38v4.04c0,3-1.3,5.4-4.341,6.279v-2a3.835,3.835,0,0,0,2.289-3.879H58.785Z" style="fill: #181716"/>
    <path d="M84.593,464.8H73.308l-1.5,8.158.079.08A7.028,7.028,0,0,1,77.1,471c4.971,0,9.036,3.239,9.036,9.718,0,4.8-3.276,9.439-9.786,9.439-4.854,0-8.8-3-8.918-8.119h3.354a5.534,5.534,0,0,0,5.88,5.119c3.195,0,5.918-2.2,5.918-6.719A6.1,6.1,0,0,0,76.267,474a6.686,6.686,0,0,0-5.209,2.68l-2.88-.16,2.6-14.718H84.593Z" style="fill: #181716"/>
  </g>
  <g>
    <path d="M44.972,570.52c8.759,0,9.312,8.158,9.312,14.438,0,6.238-.553,14.4-9.312,14.4s-9.313-8.159-9.313-14.4C35.659,578.678,36.212,570.52,44.972,570.52Zm0,25.835c5.721,0,5.76-7.2,5.76-11.438,0-4.2-.039-11.4-5.76-11.4s-5.762,7.2-5.762,11.4C39.21,589.157,39.25,596.355,44.972,596.355Z" style="fill: #181716"/>
    <path d="M58.785,594.436h4.38v4.039c0,3-1.3,5.4-4.341,6.279v-2a3.834,3.834,0,0,0,2.289-3.879H58.785Z" style="fill: #181716"/>
    <path d="M77.017,570.52c8.759,0,9.312,8.158,9.312,14.438,0,6.238-.553,14.4-9.312,14.4S67.7,591.2,67.7,584.958C67.7,578.678,68.257,570.52,77.017,570.52Zm0,25.835c5.721,0,5.76-7.2,5.76-11.438,0-4.2-.039-11.4-5.76-11.4s-5.762,7.2-5.762,11.4C71.255,589.157,71.3,596.355,77.017,596.355Z" style="fill: #181716"/>
  </g>
  <g>
    <path d="M11.626,695.36h11.4v3.2h-11.4Z" style="fill: #181716"/>
    <path d="M45.05,679.723c8.76,0,9.313,8.158,9.313,14.438,0,6.238-.553,14.4-9.313,14.4s-9.312-8.159-9.312-14.4C35.738,687.881,36.29,679.723,45.05,679.723Zm0,25.836c5.722,0,5.762-7.2,5.762-11.438,0-4.2-.04-11.4-5.762-11.4s-5.761,7.2-5.761,11.4C39.289,698.36,39.329,705.559,45.05,705.559Z" style="fill: #181716"/>
    <path d="M58.863,703.639h4.381v4.039c0,3-1.3,5.4-4.341,6.279v-2a3.834,3.834,0,0,0,2.288-3.88H58.863Z" style="fill: #181716"/>
    <path d="M84.671,683.2H73.386l-1.5,8.159.078.08a7.026,7.026,0,0,1,5.209-2.04c4.972,0,9.036,3.24,9.036,9.719,0,4.8-3.275,9.438-9.786,9.438-4.853,0-8.8-3-8.918-8.119H70.86a5.535,5.535,0,0,0,5.88,5.12c3.2,0,5.919-2.2,5.919-6.719a6.1,6.1,0,0,0-6.314-6.439,6.684,6.684,0,0,0-5.208,2.679l-2.881-.16,2.6-14.717H84.671Z" style="fill: #181716"/>
  </g>
  <g>
    <path d="M11.626,804.563h11.4v3.2h-11.4Z" style="fill: #181716"/>
    <path d="M48.128,817.281H44.774V796.965h-7.26v-2.72c3.827,0,7.3-1.04,8.049-5.319h2.565Z" style="fill: #181716"/>
    <path d="M58.863,812.842h4.381v4.039c0,3-1.3,5.4-4.341,6.279v-2a3.833,3.833,0,0,0,2.288-3.88H58.863Z" style="fill: #181716"/>
    <path d="M77.1,788.926c8.76,0,9.313,8.158,9.313,14.438,0,6.239-.553,14.4-9.313,14.4s-9.312-8.158-9.312-14.4C67.783,797.084,68.335,788.926,77.1,788.926Zm0,25.836c5.722,0,5.761-7.2,5.761-11.438,0-4.2-.039-11.4-5.761-11.4s-5.761,7.2-5.761,11.4C71.334,807.563,71.374,814.762,77.1,814.762Z" style="fill: #181716"/>
  </g>
  <line x1="639.929" y1="807.162" x2="639.929" y2="818.698" style="fill: none;stroke: #181716;stroke-width: 2.39294958909229px"/>
  <line x1="431.057" y1="807.162" x2="431.057" y2="818.698" style="fill: none;stroke: #181716;stroke-width: 2.39294958909229px"/>
  <line x1="953.239" y1="807.162" x2="953.239" y2="818.698" style="fill: none;stroke: #181716;stroke-width: 2.39294958909229px"/>
  <line x1="1475.42" y1="807.162" x2="1475.42" y2="818.698" style="fill: none;stroke: #181716;stroke-width: 2.39294958909229px"/>
  <line x1="535.493" y1="807.162" x2="535.493" y2="818.698" style="fill: none;stroke: #181716;stroke-width: 2.39294958909229px"/>
  <line x1="1057.674" y1="807.162" x2="1057.674" y2="818.698" style="fill: none;stroke: #181716;stroke-width: 2.39294958909229px"/>
  <line x1="1579.856" y1="807.162" x2="1579.856" y2="818.698" style="fill: none;stroke: #181716;stroke-width: 2.39294958909229px"/>
  <line x1="1788.729" y1="807.162" x2="1788.729" y2="818.698" style="fill: none;stroke: #181716;stroke-width: 2.39294958909229px"/>
  <line x1="326.621" y1="807.162" x2="326.621" y2="818.698" style="fill: none;stroke: #181716;stroke-width: 2.39294958909229px"/>
  <line x1="848.802" y1="807.162" x2="848.802" y2="818.698" style="fill: none;stroke: #181716;stroke-width: 2.39294958909229px"/>
  <line x1="1370.984" y1="807.162" x2="1370.984" y2="818.698" style="fill: none;stroke: #181716;stroke-width: 2.39294958909229px"/>
  <line x1="222.184" y1="807.162" x2="222.184" y2="818.698" style="fill: none;stroke: #181716;stroke-width: 2.39294958909229px"/>
  <line x1="744.366" y1="807.162" x2="744.366" y2="818.698" style="fill: none;stroke: #181716;stroke-width: 2.39294958909229px"/>
  <line x1="1266.547" y1="807.162" x2="1266.547" y2="818.698" style="fill: none;stroke: #181716;stroke-width: 2.39294958909229px"/>
  <line x1="1684.293" y1="807.162" x2="1684.293" y2="818.698" style="fill: none;stroke: #181716;stroke-width: 2.39294958909229px"/>
  <line x1="1162.111" y1="807.162" x2="1162.111" y2="818.698" style="fill: none;stroke: #181716;stroke-width: 2.39294958909229px"/>
  <line x1="1893.165" y1="807.162" x2="1893.165" y2="818.698" style="fill: none;stroke: #181716;stroke-width: 2.39294958909229px"/>
  <line x1="429.359" y1="912.709" x2="508.727" y2="912.709" style="fill: none;stroke: #010102;stroke-width: 8px"/>
  <g>
    <path d="M535.044,895.476c9.079,0,13.678,7.2,13.678,14.958s-4.6,14.957-13.678,14.957-13.677-7.2-13.677-14.957S525.966,895.476,535.044,895.476Zm0,26.715c6.959,0,9.879-6,9.879-11.757s-2.92-11.758-9.879-11.758-9.877,6-9.877,11.758S528.086,922.191,535.044,922.191Z" style="fill: #181716"/>
    <path d="M552.926,896.155h3.4v10.679h.08c1.119-2.279,3.759-3.279,6.6-3.279,6.359,0,9.519,5.039,9.519,10.878s-3.12,10.757-9.439,10.757c-2.119,0-5.159-.8-6.678-3.239h-.08v2.76h-3.4Zm9.6,10.4c-4.559,0-6.318,3.92-6.318,7.8,0,4.079,1.839,7.838,6.519,7.838,4.639,0,6.2-3.959,6.2-8C568.923,910.313,566.924,906.554,562.524,906.554Z" style="fill: #181716"/>
    <path d="M578.605,918.192c.121,3.039,2.76,4,5.56,4,2.119,0,5-.479,5-3.079,0-2.639-3.36-3.08-6.759-3.84-3.36-.759-6.759-1.879-6.759-5.838,0-4.16,4.119-5.879,7.719-5.879,4.559,0,8.2,1.439,8.478,6.478h-3.4c-.24-2.639-2.56-3.479-4.8-3.479-2.04,0-4.4.56-4.4,2.639,0,2.44,3.6,2.84,6.758,3.6,3.4.76,6.759,1.88,6.759,5.879,0,4.919-4.6,6.518-8.8,6.518-4.64,0-8.559-1.878-8.759-7Z" style="fill: #181716"/>
    <path d="M614.163,918.152c-.92,4.559-4.2,7.038-8.839,7.038-6.6,0-9.718-4.558-9.918-10.878,0-6.2,4.079-10.757,9.719-10.757,7.318,0,9.558,6.839,9.358,11.838H599.005c-.12,3.6,1.92,6.8,6.439,6.8,2.8,0,4.76-1.359,5.36-4.039Zm-3.28-5.759a5.948,5.948,0,0,0-5.959-5.839c-3.559,0-5.678,2.679-5.919,5.839Z" style="fill: #181716"/>
    <path d="M617.885,904.034h3.2v4.36h.08c1.64-3.32,3.919-4.959,7.6-4.839v3.6c-5.479,0-7.479,3.119-7.479,8.359v9.2h-3.4Z" style="fill: #181716"/>
    <path d="M640.644,924.711H637l-7.678-20.677h3.8l5.8,17.237H639l5.639-17.237H648.2Z" style="fill: #181716"/>
    <path d="M669.642,924.631a4.585,4.585,0,0,1-2.439.559c-1.76,0-2.88-.959-2.88-3.2a9.174,9.174,0,0,1-7.279,3.2c-3.759,0-6.838-1.679-6.838-5.8,0-4.679,3.479-5.679,7-6.359,3.759-.72,6.959-.48,6.959-3.04,0-2.959-2.439-3.439-4.6-3.439-2.88,0-5,.88-5.159,3.92h-3.4c.2-5.12,4.16-6.919,8.759-6.919,3.719,0,7.758.84,7.758,5.678v10.639c0,1.6,0,2.319,1.08,2.319a2.919,2.919,0,0,0,1.04-.2Zm-5.519-10.6c-1.32.959-3.879,1-6.159,1.4-2.239.4-4.159,1.2-4.159,3.719,0,2.24,1.92,3.039,4,3.039,4.479,0,6.319-2.8,6.319-4.679Z" style="fill: #181716"/>
    <path d="M677.524,904.034h4.119v3h-4.119v12.838c0,1.56.44,1.84,2.559,1.84h1.56v3h-2.6c-3.519,0-4.918-.72-4.918-4.52V907.034h-3.52v-3h3.52v-6.2h3.4Z" style="fill: #181716"/>
    <path d="M689,900.315h-3.4v-4.16H689Zm-3.4,3.719H689v20.677h-3.4Z" style="fill: #181716"/>
    <path d="M703.2,903.555c6.559,0,10.039,4.758,10.039,10.838,0,6.039-3.48,10.8-10.039,10.8s-10.038-4.758-10.038-10.8C693.164,908.313,696.643,903.555,703.2,903.555Zm0,18.636c3.56,0,6.439-2.8,6.439-7.8,0-5.039-2.879-7.839-6.439-7.839s-6.439,2.8-6.439,7.839C696.763,919.392,699.643,922.191,703.2,922.191Z" style="fill: #181716"/>
    <path d="M717.243,904.034h3.2v3.279h.079a7.2,7.2,0,0,1,6.72-3.758c5.439,0,7.118,3.119,7.118,7.558v13.6h-3.4v-14a3.9,3.9,0,0,0-4.2-4.159c-4.12,0-6.119,2.759-6.119,6.479v11.678h-3.4Z" style="fill: #181716"/>
    <path d="M741.562,918.192c.121,3.039,2.76,4,5.56,4,2.119,0,5-.479,5-3.079,0-2.639-3.36-3.08-6.759-3.84-3.36-.759-6.759-1.879-6.759-5.838,0-4.16,4.119-5.879,7.719-5.879,4.559,0,8.2,1.439,8.478,6.478h-3.4c-.24-2.639-2.56-3.479-4.8-3.479-2.04,0-4.4.56-4.4,2.639,0,2.44,3.6,2.84,6.758,3.6,3.4.76,6.759,1.88,6.759,5.879,0,4.919-4.6,6.518-8.8,6.518-4.64,0-8.559-1.878-8.759-7Z" style="fill: #181716"/>
  </g>
  <line x1="429.359" y1="964.709" x2="508.727" y2="964.709" style="fill: none;stroke: #895917;stroke-width: 8px"/>
  <g>
    <path d="M539.484,956.515c-.44-4.08-3.16-5.839-7.079-5.839-3.2,0-6.4,1.159-6.4,4.879,0,3.519,4.559,4.039,9.159,5.079,4.559,1.04,9.118,2.639,9.118,8.238,0,6.079-5.959,8.519-11.158,8.519-6.4,0-11.8-3.12-11.8-10.079h3.6c0,4.8,4,6.879,8.319,6.879,3.44,0,7.239-1.08,7.239-5.2,0-3.919-4.56-4.6-9.119-5.6s-9.158-2.321-9.158-7.56c0-5.8,5.159-8.358,10.358-8.358,5.839,0,10.278,2.759,10.518,9.039Z" style="fill: #181716"/>
    <path d="M551.926,952.315h-3.4v-4.16h3.4Zm-3.4,3.719h3.4v20.677h-3.4Z" style="fill: #181716"/>
    <path d="M557.206,956.034h3.2v3.04h.08a7.621,7.621,0,0,1,6.679-3.519c2.52,0,4.839,1,5.679,3.519a7.649,7.649,0,0,1,6.479-3.519c4.119,0,6.879,1.719,6.879,6v15.157h-3.4V963.153c0-2.559-.679-4.6-4-4.6a5.008,5.008,0,0,0-5.4,5.279v12.878H570V963.153c0-2.679-.839-4.6-3.879-4.6a5.577,5.577,0,0,0-5.519,5.279v12.878h-3.4Z" style="fill: #181716"/>
    <path d="M608.443,976.711h-3.2v-3.279h-.079a7.2,7.2,0,0,1-6.72,3.758c-5.439,0-7.118-3.119-7.118-7.558v-13.6h3.4v14a3.9,3.9,0,0,0,4.2,4.159c4.12,0,6.119-2.759,6.119-6.478V956.034h3.4Z" style="fill: #181716"/>
    <path d="M613.766,948.155h3.4v28.556h-3.4Z" style="fill: #181716"/>
    <path d="M640.762,976.631a4.586,4.586,0,0,1-2.44.559c-1.76,0-2.879-.959-2.879-3.2a9.175,9.175,0,0,1-7.279,3.2c-3.76,0-6.839-1.679-6.839-5.8,0-4.679,3.479-5.679,7-6.359,3.759-.72,6.959-.48,6.959-3.04,0-2.959-2.44-3.439-4.6-3.439-2.88,0-5,.88-5.16,3.92h-3.4c.2-5.12,4.159-6.919,8.758-6.919,3.72,0,7.759.84,7.759,5.678v10.639c0,1.6,0,2.319,1.08,2.319a2.919,2.919,0,0,0,1.04-.2Zm-5.519-10.6c-1.32.959-3.88,1-6.16,1.4-2.239.4-4.159,1.2-4.159,3.719,0,2.24,1.92,3.039,4,3.039,4.479,0,6.319-2.8,6.319-4.679Z" style="fill: #181716"/>
    <path d="M648.644,956.034h4.119v3h-4.119v12.838c0,1.56.439,1.84,2.559,1.84h1.56v3h-2.6c-3.519,0-4.919-.72-4.919-4.52V959.034h-3.519v-3h3.519v-6.2h3.4Z" style="fill: #181716"/>
    <path d="M660.124,952.315h-3.4v-4.16h3.4Zm-3.4,3.719h3.4v20.677h-3.4Z" style="fill: #181716"/>
    <path d="M674.322,955.555c6.559,0,10.038,4.758,10.038,10.838,0,6.039-3.479,10.8-10.038,10.8s-10.038-4.758-10.038-10.8C664.284,960.313,667.763,955.555,674.322,955.555Zm0,18.636c3.559,0,6.439-2.8,6.439-7.8,0-5.039-2.88-7.839-6.439-7.839s-6.439,2.8-6.439,7.839C667.883,971.392,670.762,974.191,674.322,974.191Z" style="fill: #181716"/>
    <path d="M688.363,956.034h3.2v3.279h.08a7.2,7.2,0,0,1,6.719-3.758c5.439,0,7.119,3.119,7.119,7.558v13.6h-3.4v-14a3.9,3.9,0,0,0-4.2-4.159c-4.119,0-6.119,2.759-6.119,6.479v11.678h-3.4Z" style="fill: #181716"/>
    <path d="M712.683,970.192c.12,3.039,2.759,4,5.559,4,2.119,0,5-.479,5-3.079,0-2.639-3.36-3.08-6.759-3.84-3.359-.759-6.759-1.879-6.759-5.838,0-4.16,4.119-5.879,7.719-5.879,4.559,0,8.2,1.439,8.478,6.478h-3.4c-.24-2.639-2.56-3.479-4.8-3.479-2.04,0-4.4.56-4.4,2.639,0,2.44,3.6,2.84,6.759,3.6,3.4.76,6.758,1.88,6.758,5.879,0,4.919-4.6,6.518-8.8,6.518-4.64,0-8.559-1.878-8.759-7Z" style="fill: #181716"/>
    <path d="M731.363,972.271H735.8v4.04c0,3-1.32,5.4-4.4,6.279v-2a3.829,3.829,0,0,0,2.32-3.879h-2.36Z" style="fill: #181716"/>
    <path d="M754.243,959.034h-3.479v-3h3.479v-3.079c0-3.359,2-5.119,5.719-5.119a8.4,8.4,0,0,1,2.2.319v2.96a6.377,6.377,0,0,0-1.92-.28c-1.64,0-2.6.52-2.6,2.32v2.879h4v3h-4v17.677h-3.4Z" style="fill: #181716"/>
    <path d="M773.6,955.555c6.559,0,10.039,4.758,10.039,10.838,0,6.039-3.48,10.8-10.039,10.8s-10.038-4.758-10.038-10.8C763.563,960.313,767.042,955.555,773.6,955.555Zm0,18.636c3.56,0,6.439-2.8,6.439-7.8,0-5.039-2.879-7.839-6.439-7.839s-6.439,2.8-6.439,7.839C767.162,971.392,770.042,974.191,773.6,974.191Z" style="fill: #181716"/>
    <path d="M787.522,956.034h3.2v4.36h.08c1.639-3.32,3.919-4.959,7.6-4.839v3.6c-5.479,0-7.479,3.119-7.479,8.359v9.2h-3.4Z" style="fill: #181716"/>
    <path d="M814.319,962.673a4.813,4.813,0,0,0-5.119-4.119c-4.919,0-6.439,3.88-6.439,8.079,0,3.8,1.72,7.558,6.039,7.558,3.28,0,5.24-1.92,5.679-5.039h3.48c-.72,4.839-3.68,7.8-8.519,8l-1.319,1.681.079.079a2.392,2.392,0,0,1,1.32-.279c1.68,0,3.359.96,3.359,2.919,0,2.679-2.759,3.559-4.959,3.559a10.609,10.609,0,0,1-3.679-.759l.72-1.76a7.543,7.543,0,0,0,2.439.519c1.08,0,2.48-.319,2.48-1.239,0-.72-.84-1.24-1.88-1.24a4.592,4.592,0,0,0-1.639.32l-.68-1.12,2.119-2.719c-5.638-.44-8.638-4.679-8.638-10.478,0-6.2,3.2-11.078,9.758-11.078,4.68,0,8.439,2.2,8.919,7.118Z" style="fill: #181716"/>
    <path d="M840.078,976.631a4.585,4.585,0,0,1-2.439.559c-1.76,0-2.88-.959-2.88-3.2a9.174,9.174,0,0,1-7.279,3.2c-3.759,0-6.838-1.679-6.838-5.8,0-4.679,3.479-5.679,7-6.359,3.759-.72,6.959-.48,6.959-3.04,0-2.959-2.439-3.439-4.6-3.439-2.88,0-5,.88-5.159,3.92h-3.4c.2-5.12,4.16-6.919,8.759-6.919,3.719,0,7.758.84,7.758,5.678v10.639c0,1.6,0,2.319,1.081,2.319a2.918,2.918,0,0,0,1.039-.2Zm-5.519-10.6c-1.32.959-3.879,1-6.159,1.4-2.239.4-4.159,1.2-4.159,3.719,0,2.24,1.92,3.039,4,3.039,4.479,0,6.319-2.8,6.319-4.679Z" style="fill: #181716"/>
    <path d="M861.078,974.951c0,6.719-3.08,10.158-9.6,10.158-3.879,0-8.358-1.559-8.558-6.079h3.4c.16,2.48,3.119,3.36,5.359,3.36,4.44,0,6.2-3.2,6.2-7.838v-1.361h-.08a6.889,6.889,0,0,1-6.439,3.76c-6.159,0-9.238-4.84-9.238-10.478,0-4.879,2.4-10.918,9.558-10.918a6.747,6.747,0,0,1,6.159,3.439h.04v-2.96h3.2Zm-3.36-9c0-3.64-1.6-7.4-5.879-7.4-4.359,0-6.119,3.559-6.119,7.518,0,3.72,1.36,7.879,5.839,7.879S857.718,969.832,857.718,965.953Z" style="fill: #181716"/>
    <path d="M883.838,970.152c-.92,4.559-4.2,7.038-8.839,7.038-6.6,0-9.718-4.558-9.918-10.878,0-6.2,4.079-10.757,9.718-10.757,7.319,0,9.558,6.839,9.359,11.838H868.68c-.12,3.6,1.92,6.8,6.439,6.8,2.8,0,4.759-1.359,5.36-4.039Zm-3.28-5.759a5.949,5.949,0,0,0-5.959-5.839c-3.559,0-5.679,2.679-5.919,5.839Z" style="fill: #181716"/>
    <path d="M917.117,976.631a4.586,4.586,0,0,1-2.44.559c-1.76,0-2.879-.959-2.879-3.2a9.175,9.175,0,0,1-7.279,3.2c-3.76,0-6.839-1.679-6.839-5.8,0-4.679,3.479-5.679,7-6.359,3.759-.72,6.959-.48,6.959-3.04,0-2.959-2.44-3.439-4.6-3.439-2.88,0-5,.88-5.16,3.92h-3.4c.2-5.12,4.159-6.919,8.758-6.919,3.72,0,7.759.84,7.759,5.678v10.639c0,1.6,0,2.319,1.08,2.319a2.919,2.919,0,0,0,1.04-.2Zm-5.519-10.6c-1.32.959-3.88,1-6.16,1.4-2.239.4-4.159,1.2-4.159,3.719,0,2.24,1.92,3.039,4,3.039,4.479,0,6.319-2.8,6.319-4.679Z" style="fill: #181716"/>
    <path d="M920.279,956.034h3.2v3.279h.08a7.2,7.2,0,0,1,6.719-3.758c5.439,0,7.118,3.119,7.118,7.558v13.6H934v-14a3.9,3.9,0,0,0-4.2-4.159c-4.12,0-6.119,2.759-6.119,6.479v11.678h-3.4Z" style="fill: #181716"/>
    <path d="M947.239,956.034h4.119v3h-4.119v12.838c0,1.56.44,1.84,2.559,1.84h1.56v3h-2.6c-3.519,0-4.919-.72-4.919-4.52V959.034H940.32v-3h3.519v-6.2h3.4Z" style="fill: #181716"/>
    <path d="M955.119,948.155h3.4v10.919h.08c1.119-2.479,4.039-3.519,6.519-3.519,5.438,0,7.117,3.119,7.117,7.558v13.6h-3.4v-14a3.9,3.9,0,0,0-4.2-4.159c-4.119,0-6.118,2.759-6.118,6.479v11.678h-3.4Z" style="fill: #181716"/>
    <path d="M977.238,956.034h3.2v4.36h.08c1.639-3.32,3.92-4.959,7.6-4.839v3.6c-5.478,0-7.478,3.119-7.478,8.359v9.2h-3.4Z" style="fill: #181716"/>
    <path d="M998.917,955.555c6.559,0,10.038,4.758,10.038,10.838,0,6.039-3.479,10.8-10.038,10.8s-10.039-4.758-10.039-10.8C988.878,960.313,992.357,955.555,998.917,955.555Zm0,18.636c3.559,0,6.438-2.8,6.438-7.8,0-5.039-2.879-7.839-6.438-7.839s-6.439,2.8-6.439,7.839C992.478,971.392,995.357,974.191,998.917,974.191Z" style="fill: #181716"/>
    <path d="M1013.078,956.034h3.4v2.8h.08c1.119-2.279,3.758-3.279,6.6-3.279,6.36,0,9.519,5.039,9.519,10.878s-3.119,10.757-9.439,10.757c-2.12,0-5.159-.8-6.678-3.239h-.08V984.63h-3.4Zm9.6,2.52c-4.56,0-6.32,3.92-6.32,7.8,0,4.079,1.84,7.838,6.519,7.838,4.64,0,6.2-3.959,6.2-8C1029.075,962.313,1027.075,958.554,1022.677,958.554Z" style="fill: #181716"/>
    <path d="M1040.276,952.315h-3.4v-4.16h3.4Zm-3.4,3.719h3.4v20.677h-3.4Z" style="fill: #181716"/>
    <path d="M1064.033,984.63h-3.4V973.911h-.08c-1.119,2.28-3.759,3.279-6.6,3.279-6.358,0-9.518-5.039-9.518-10.878s3.12-10.757,9.438-10.757c2.12,0,5.159.8,6.679,3.239h.08v-2.76h3.4Zm-9.6-10.439c4.558,0,6.318-3.919,6.318-7.8,0-4.08-1.84-7.839-6.519-7.839-4.639,0-6.2,3.96-6.2,8C1048.036,970.432,1050.036,974.191,1054.436,974.191Z" style="fill: #181716"/>
    <path d="M1086.394,976.711h-3.2v-3.279h-.08a7.2,7.2,0,0,1-6.718,3.758c-5.44,0-7.12-3.119-7.12-7.558v-13.6h3.4v14a3.9,3.9,0,0,0,4.2,4.159c4.119,0,6.119-2.759,6.119-6.478V956.034h3.4Z" style="fill: #181716"/>
    <path d="M1109.153,970.152c-.92,4.559-4.2,7.038-8.838,7.038-6.6,0-9.718-4.558-9.919-10.878,0-6.2,4.081-10.757,9.719-10.757,7.319,0,9.559,6.839,9.359,11.838H1094c-.12,3.6,1.92,6.8,6.44,6.8,2.8,0,4.758-1.359,5.358-4.039Zm-3.279-5.759a5.949,5.949,0,0,0-5.959-5.839c-3.56,0-5.679,2.679-5.919,5.839Z" style="fill: #181716"/>
    <path d="M1141.752,970.152c-.92,4.559-4.2,7.038-8.838,7.038-6.6,0-9.719-4.558-9.919-10.878,0-6.2,4.08-10.757,9.719-10.757,7.318,0,9.558,6.839,9.358,11.838H1126.6c-.12,3.6,1.92,6.8,6.439,6.8,2.8,0,4.759-1.359,5.359-4.039Zm-3.279-5.759a5.95,5.95,0,0,0-5.959-5.839c-3.56,0-5.679,2.679-5.919,5.839Z" style="fill: #181716"/>
    <path d="M1150.313,956.034h4.121v3h-4.121v12.838c0,1.56.441,1.84,2.56,1.84h1.561v3h-2.6c-3.52,0-4.92-.72-4.92-4.52V959.034H1143.4v-3h3.518v-6.2h3.4Z" style="fill: #181716"/>
    <path d="M1169.314,956.034h3.2v3.279h.08a7.2,7.2,0,0,1,6.718-3.758c5.44,0,7.12,3.119,7.12,7.558v13.6h-3.4v-14a3.9,3.9,0,0,0-4.2-4.159c-4.119,0-6.119,2.759-6.119,6.479v11.678h-3.4Z" style="fill: #181716"/>
    <path d="M1209.872,976.631a4.589,4.589,0,0,1-2.44.559c-1.76,0-2.879-.959-2.879-3.2a9.176,9.176,0,0,1-7.28,3.2c-3.758,0-6.838-1.679-6.838-5.8,0-4.679,3.479-5.679,7-6.359,3.759-.72,6.959-.48,6.959-3.04,0-2.959-2.44-3.439-4.6-3.439-2.879,0-5,.88-5.159,3.92h-3.4c.2-5.12,4.161-6.919,8.759-6.919,3.72,0,7.759.84,7.759,5.678v10.639c0,1.6,0,2.319,1.08,2.319a2.923,2.923,0,0,0,1.04-.2Zm-5.519-10.6c-1.32.959-3.879,1-6.16,1.4-2.239.4-4.159,1.2-4.159,3.719,0,2.24,1.92,3.039,4,3.039,4.48,0,6.32-2.8,6.32-4.679Z" style="fill: #181716"/>
    <path d="M1217.753,956.034h4.12v3h-4.12v12.838c0,1.56.44,1.84,2.559,1.84h1.561v3h-2.6c-3.519,0-4.919-.72-4.919-4.52V959.034h-3.519v-3h3.519v-6.2h3.4Z" style="fill: #181716"/>
    <path d="M1242.751,976.711h-3.2v-3.279h-.08a7.2,7.2,0,0,1-6.719,3.758c-5.44,0-7.119-3.119-7.119-7.558v-13.6h3.4v14a3.9,3.9,0,0,0,4.2,4.159c4.12,0,6.12-2.759,6.12-6.478V956.034h3.4Z" style="fill: #181716"/>
    <path d="M1247.754,956.034h3.2v4.36h.08c1.64-3.32,3.92-4.959,7.6-4.839v3.6c-5.479,0-7.479,3.119-7.479,8.359v9.2h-3.4Z" style="fill: #181716"/>
    <path d="M1278.11,970.152c-.92,4.559-4.2,7.038-8.838,7.038-6.6,0-9.718-4.558-9.918-10.878,0-6.2,4.08-10.757,9.718-10.757,7.319,0,9.559,6.839,9.359,11.838h-15.478c-.12,3.6,1.92,6.8,6.44,6.8,2.8,0,4.758-1.359,5.358-4.039Zm-3.279-5.759a5.949,5.949,0,0,0-5.959-5.839c-3.56,0-5.679,2.679-5.919,5.839Z" style="fill: #181716"/>
    <path d="M1282.153,948.155h3.4v28.556h-3.4Z" style="fill: #181716"/>
  </g>
  <line x1="429.359" y1="1016.709" x2="508.727" y2="1016.709" style="fill: none;stroke: #2f7770;stroke-width: 8px"/>
  <g>
    <path d="M539.484,1008.515c-.44-4.08-3.16-5.839-7.079-5.839-3.2,0-6.4,1.159-6.4,4.879,0,3.519,4.559,4.039,9.159,5.079,4.559,1.04,9.118,2.639,9.118,8.238,0,6.079-5.959,8.519-11.158,8.519-6.4,0-11.8-3.12-11.8-10.079h3.6c0,4.8,4,6.879,8.319,6.879,3.44,0,7.239-1.08,7.239-5.2,0-3.919-4.56-4.6-9.119-5.6s-9.158-2.321-9.158-7.56c0-5.8,5.159-8.358,10.358-8.358,5.839,0,10.278,2.759,10.518,9.039Z" style="fill: #181716"/>
    <path d="M551.926,1004.315h-3.4v-4.16h3.4Zm-3.4,3.719h3.4v20.677h-3.4Z" style="fill: #181716"/>
    <path d="M557.206,1008.034h3.2v3.04h.08a7.621,7.621,0,0,1,6.679-3.519c2.52,0,4.839,1,5.679,3.519a7.649,7.649,0,0,1,6.479-3.519c4.119,0,6.879,1.719,6.879,6v15.157h-3.4v-13.558c0-2.559-.679-4.6-4-4.6a5.008,5.008,0,0,0-5.4,5.279v12.878H570v-13.558c0-2.679-.839-4.6-3.879-4.6a5.577,5.577,0,0,0-5.519,5.279v12.878h-3.4Z" style="fill: #181716"/>
    <path d="M608.443,1028.711h-3.2v-3.279h-.079a7.2,7.2,0,0,1-6.72,3.758c-5.439,0-7.118-3.119-7.118-7.558v-13.6h3.4v14a3.9,3.9,0,0,0,4.2,4.159c4.12,0,6.119-2.759,6.119-6.478v-11.679h3.4Z" style="fill: #181716"/>
    <path d="M613.766,1000.155h3.4v28.556h-3.4Z" style="fill: #181716"/>
    <path d="M640.762,1028.631a4.586,4.586,0,0,1-2.44.559c-1.76,0-2.879-.959-2.879-3.2a9.175,9.175,0,0,1-7.279,3.2c-3.76,0-6.839-1.679-6.839-5.8,0-4.679,3.479-5.679,7-6.359,3.759-.72,6.959-.48,6.959-3.04,0-2.959-2.44-3.439-4.6-3.439-2.88,0-5,.88-5.16,3.92h-3.4c.2-5.12,4.159-6.919,8.758-6.919,3.72,0,7.759.84,7.759,5.678v10.639c0,1.6,0,2.319,1.08,2.319a2.919,2.919,0,0,0,1.04-.2Zm-5.519-10.6c-1.32.959-3.88,1-6.16,1.4-2.239.4-4.159,1.2-4.159,3.719,0,2.24,1.92,3.039,4,3.039,4.479,0,6.319-2.8,6.319-4.679Z" style="fill: #181716"/>
    <path d="M648.644,1008.034h4.119v3h-4.119v12.838c0,1.56.439,1.84,2.559,1.84h1.56v3h-2.6c-3.519,0-4.919-.72-4.919-4.52v-13.157h-3.519v-3h3.519v-6.2h3.4Z" style="fill: #181716"/>
    <path d="M660.124,1004.315h-3.4v-4.16h3.4Zm-3.4,3.719h3.4v20.677h-3.4Z" style="fill: #181716"/>
    <path d="M674.322,1007.555c6.559,0,10.038,4.758,10.038,10.838,0,6.039-3.479,10.8-10.038,10.8s-10.038-4.758-10.038-10.8C664.284,1012.313,667.763,1007.555,674.322,1007.555Zm0,18.636c3.559,0,6.439-2.8,6.439-7.8,0-5.039-2.88-7.839-6.439-7.839s-6.439,2.8-6.439,7.839C667.883,1023.392,670.762,1026.191,674.322,1026.191Z" style="fill: #181716"/>
    <path d="M688.363,1008.034h3.2v3.279h.08a7.2,7.2,0,0,1,6.719-3.758c5.439,0,7.119,3.119,7.119,7.558v13.6h-3.4v-14a3.9,3.9,0,0,0-4.2-4.159c-4.119,0-6.119,2.759-6.119,6.479v11.678h-3.4Z" style="fill: #181716"/>
    <path d="M712.683,1022.192c.12,3.039,2.759,4,5.559,4,2.119,0,5-.479,5-3.079,0-2.639-3.36-3.08-6.759-3.84-3.359-.759-6.759-1.879-6.759-5.838,0-4.16,4.119-5.879,7.719-5.879,4.559,0,8.2,1.439,8.478,6.478h-3.4c-.24-2.639-2.56-3.479-4.8-3.479-2.04,0-4.4.56-4.4,2.639,0,2.44,3.6,2.84,6.759,3.6,3.4.76,6.758,1.88,6.758,5.879,0,4.919-4.6,6.518-8.8,6.518-4.64,0-8.559-1.878-8.759-7Z" style="fill: #181716"/>
    <path d="M731.363,1024.271H735.8v4.04c0,3-1.32,5.4-4.4,6.279v-2a3.829,3.829,0,0,0,2.32-3.879h-2.36Z" style="fill: #181716"/>
    <path d="M754.243,1011.034h-3.479v-3h3.479v-3.079c0-3.359,2-5.119,5.719-5.119a8.4,8.4,0,0,1,2.2.319v2.96a6.377,6.377,0,0,0-1.92-.28c-1.64,0-2.6.52-2.6,2.32v2.879h4v3h-4v17.677h-3.4Z" style="fill: #181716"/>
    <path d="M773.6,1007.555c6.559,0,10.039,4.758,10.039,10.838,0,6.039-3.48,10.8-10.039,10.8s-10.038-4.758-10.038-10.8C763.563,1012.313,767.042,1007.555,773.6,1007.555Zm0,18.636c3.56,0,6.439-2.8,6.439-7.8,0-5.039-2.879-7.839-6.439-7.839s-6.439,2.8-6.439,7.839C767.162,1023.392,770.042,1026.191,773.6,1026.191Z" style="fill: #181716"/>
    <path d="M787.522,1008.034h3.2v4.36h.08c1.639-3.32,3.919-4.959,7.6-4.839v3.6c-5.479,0-7.479,3.119-7.479,8.359v9.2h-3.4Z" style="fill: #181716"/>
    <path d="M814.319,1014.673a4.813,4.813,0,0,0-5.119-4.119c-4.919,0-6.439,3.88-6.439,8.079,0,3.8,1.72,7.558,6.039,7.558,3.28,0,5.24-1.92,5.679-5.039h3.48c-.72,4.839-3.68,7.8-8.519,8l-1.319,1.681.079.079a2.392,2.392,0,0,1,1.32-.279c1.68,0,3.359.96,3.359,2.919,0,2.679-2.759,3.559-4.959,3.559a10.609,10.609,0,0,1-3.679-.759l.72-1.76a7.543,7.543,0,0,0,2.439.519c1.08,0,2.48-.319,2.48-1.239,0-.72-.84-1.24-1.88-1.24a4.592,4.592,0,0,0-1.639.32l-.68-1.12,2.119-2.719c-5.638-.44-8.638-4.679-8.638-10.478,0-6.2,3.2-11.078,9.758-11.078,4.68,0,8.439,2.2,8.919,7.118Z" style="fill: #181716"/>
    <path d="M840.078,1028.631a4.585,4.585,0,0,1-2.439.559c-1.76,0-2.88-.959-2.88-3.2a9.174,9.174,0,0,1-7.279,3.2c-3.759,0-6.838-1.679-6.838-5.8,0-4.679,3.479-5.679,7-6.359,3.759-.72,6.959-.48,6.959-3.04,0-2.959-2.439-3.439-4.6-3.439-2.88,0-5,.88-5.159,3.92h-3.4c.2-5.12,4.16-6.919,8.759-6.919,3.719,0,7.758.84,7.758,5.678v10.639c0,1.6,0,2.319,1.081,2.319a2.918,2.918,0,0,0,1.039-.2Zm-5.519-10.6c-1.32.959-3.879,1-6.159,1.4-2.239.4-4.159,1.2-4.159,3.719,0,2.24,1.92,3.039,4,3.039,4.479,0,6.319-2.8,6.319-4.679Z" style="fill: #181716"/>
    <path d="M861.078,1026.951c0,6.719-3.08,10.158-9.6,10.158-3.879,0-8.358-1.559-8.558-6.079h3.4c.16,2.48,3.119,3.36,5.359,3.36,4.44,0,6.2-3.2,6.2-7.838v-1.361h-.08a6.889,6.889,0,0,1-6.439,3.76c-6.159,0-9.238-4.84-9.238-10.478,0-4.879,2.4-10.918,9.558-10.918a6.747,6.747,0,0,1,6.159,3.439h.04v-2.96h3.2Zm-3.36-9c0-3.64-1.6-7.4-5.879-7.4-4.359,0-6.119,3.559-6.119,7.518,0,3.72,1.36,7.879,5.839,7.879S857.718,1021.832,857.718,1017.953Z" style="fill: #181716"/>
    <path d="M883.838,1022.152c-.92,4.559-4.2,7.038-8.839,7.038-6.6,0-9.718-4.558-9.918-10.878,0-6.2,4.079-10.757,9.718-10.757,7.319,0,9.558,6.839,9.359,11.838H868.68c-.12,3.6,1.92,6.8,6.439,6.8,2.8,0,4.759-1.359,5.36-4.039Zm-3.28-5.759a5.949,5.949,0,0,0-5.959-5.839c-3.559,0-5.679,2.679-5.919,5.839Z" style="fill: #181716"/>
    <path d="M898.8,1008.034H902v3.279h.079a7.2,7.2,0,0,1,6.719-3.758c5.439,0,7.119,3.119,7.119,7.558v13.6h-3.4v-14a3.9,3.9,0,0,0-4.2-4.159c-4.119,0-6.119,2.759-6.119,6.479v11.678h-3.4Z" style="fill: #181716"/>
    <path d="M939.357,1028.631a4.586,4.586,0,0,1-2.44.559c-1.759,0-2.879-.959-2.879-3.2a9.174,9.174,0,0,1-7.279,3.2c-3.759,0-6.839-1.679-6.839-5.8,0-4.679,3.479-5.679,7-6.359,3.759-.72,6.959-.48,6.959-3.04,0-2.959-2.44-3.439-4.6-3.439-2.88,0-5,.88-5.159,3.92h-3.4c.2-5.12,4.159-6.919,8.759-6.919,3.719,0,7.758.84,7.758,5.678v10.639c0,1.6,0,2.319,1.08,2.319a2.919,2.919,0,0,0,1.04-.2Zm-5.519-10.6c-1.32.959-3.88,1-6.159,1.4-2.24.4-4.159,1.2-4.159,3.719,0,2.24,1.919,3.039,4,3.039,4.479,0,6.319-2.8,6.319-4.679Z" style="fill: #181716"/>
    <path d="M947.239,1008.034h4.119v3h-4.119v12.838c0,1.56.44,1.84,2.559,1.84h1.56v3h-2.6c-3.519,0-4.919-.72-4.919-4.52v-13.157H940.32v-3h3.519v-6.2h3.4Z" style="fill: #181716"/>
    <path d="M972.235,1028.711h-3.2v-3.279h-.08a7.2,7.2,0,0,1-6.719,3.758c-5.439,0-7.119-3.119-7.119-7.558v-13.6h3.4v14a3.9,3.9,0,0,0,4.2,4.159c4.119,0,6.118-2.759,6.118-6.478v-11.679h3.4Z" style="fill: #181716"/>
    <path d="M977.238,1008.034h3.2v4.36h.08c1.639-3.32,3.92-4.959,7.6-4.839v3.6c-5.478,0-7.478,3.119-7.478,8.359v9.2h-3.4Z" style="fill: #181716"/>
    <path d="M1007.635,1022.152c-.92,4.559-4.2,7.038-8.838,7.038-6.6,0-9.719-4.558-9.919-10.878,0-6.2,4.08-10.757,9.719-10.757,7.318,0,9.558,6.839,9.358,11.838H992.478c-.121,3.6,1.919,6.8,6.439,6.8,2.8,0,4.759-1.359,5.358-4.039Zm-3.28-5.759a5.949,5.949,0,0,0-5.959-5.839c-3.559,0-5.678,2.679-5.918,5.839Z" style="fill: #181716"/>
    <path d="M1011.678,1000.155h3.4v28.556h-3.4Z" style="fill: #181716"/>
    <path d="M1033.558,1022.192c.119,3.039,2.758,4,5.558,4,2.12,0,5-.479,5-3.079,0-2.639-3.359-3.08-6.759-3.84-3.359-.759-6.758-1.879-6.758-5.838,0-4.16,4.119-5.879,7.718-5.879,4.56,0,8.2,1.439,8.479,6.478h-3.4c-.241-2.639-2.56-3.479-4.8-3.479-2.04,0-4.4.56-4.4,2.639,0,2.44,3.6,2.84,6.759,3.6,3.4.76,6.759,1.88,6.759,5.879,0,4.919-4.6,6.518-8.8,6.518-4.639,0-8.559-1.878-8.758-7Z" style="fill: #181716"/>
    <path d="M1069.114,1022.152c-.92,4.559-4.2,7.038-8.838,7.038-6.6,0-9.718-4.558-9.919-10.878,0-6.2,4.081-10.757,9.719-10.757,7.319,0,9.559,6.839,9.359,11.838h-15.478c-.12,3.6,1.92,6.8,6.439,6.8,2.8,0,4.759-1.359,5.359-4.039Zm-3.279-5.759a5.949,5.949,0,0,0-5.959-5.839c-3.56,0-5.679,2.679-5.919,5.839Z" style="fill: #181716"/>
    <path d="M1090.073,1028.711h-3.2v-3.279h-.08a7.2,7.2,0,0,1-6.719,3.758c-5.439,0-7.119-3.119-7.119-7.558v-13.6h3.4v14a3.9,3.9,0,0,0,4.2,4.159c4.119,0,6.119-2.759,6.119-6.478v-11.679h3.4Z" style="fill: #181716"/>
    <path d="M1095.4,1000.155h3.4v28.556h-3.4Z" style="fill: #181716"/>
    <path d="M1121.713,1022.152c-.92,4.559-4.2,7.038-8.838,7.038-6.6,0-9.719-4.558-9.919-10.878,0-6.2,4.08-10.757,9.719-10.757,7.318,0,9.558,6.839,9.358,11.838h-15.477c-.12,3.6,1.92,6.8,6.439,6.8,2.8,0,4.759-1.359,5.359-4.039Zm-3.279-5.759a5.95,5.95,0,0,0-5.959-5.839c-3.56,0-5.679,2.679-5.919,5.839Z" style="fill: #181716"/>
    <path d="M1125.556,1008.034h3.2v3.04h.08a7.621,7.621,0,0,1,6.679-3.519c2.519,0,4.84,1,5.679,3.519a7.649,7.649,0,0,1,6.479-3.519c4.119,0,6.879,1.719,6.879,6v15.157h-3.4v-13.558c0-2.559-.679-4.6-4-4.6a5.008,5.008,0,0,0-5.4,5.279v12.878h-3.4v-13.558c0-2.679-.84-4.6-3.879-4.6a5.577,5.577,0,0,0-5.52,5.279v12.878h-3.4Z" style="fill: #181716"/>
    <path d="M1177.312,1022.152c-.92,4.559-4.2,7.038-8.838,7.038-6.6,0-9.719-4.558-9.919-10.878,0-6.2,4.08-10.757,9.718-10.757,7.319,0,9.559,6.839,9.359,11.838h-15.478c-.12,3.6,1.92,6.8,6.44,6.8,2.8,0,4.759-1.359,5.358-4.039Zm-3.28-5.759a5.949,5.949,0,0,0-5.959-5.839c-3.559,0-5.678,2.679-5.919,5.839Z" style="fill: #181716"/>
    <path d="M1181.155,1008.034h3.2v3.279h.081a7.2,7.2,0,0,1,6.718-3.758c5.44,0,7.119,3.119,7.119,7.558v13.6h-3.4v-14a3.9,3.9,0,0,0-4.2-4.159c-4.119,0-6.119,2.759-6.119,6.479v11.678h-3.4Z" style="fill: #181716"/>
    <path d="M1208.113,1008.034h4.12v3h-4.12v12.838c0,1.56.441,1.84,2.56,1.84h1.56v3h-2.6c-3.52,0-4.92-.72-4.92-4.52v-13.157H1201.2v-3h3.519v-6.2h3.4Z" style="fill: #181716"/>
    <path d="M1232.713,1036.63c-3.839-6-6.278-11.719-6.278-18.717a31.456,31.456,0,0,1,6.278-18.437h2.6a33.1,33.1,0,0,0-5.278,18.437,33.721,33.721,0,0,0,5.278,18.717Z" style="fill: #181716"/>
    <path d="M1239.554,1022.192c.119,3.039,2.758,4,5.558,4,2.12,0,5-.479,5-3.079,0-2.639-3.359-3.08-6.758-3.84-3.36-.759-6.759-1.879-6.759-5.838,0-4.16,4.119-5.879,7.718-5.879,4.56,0,8.2,1.439,8.479,6.478h-3.4c-.241-2.639-2.56-3.479-4.8-3.479-2.04,0-4.4.56-4.4,2.639,0,2.44,3.6,2.84,6.759,3.6,3.4.76,6.759,1.88,6.759,5.879,0,4.919-4.6,6.518-8.8,6.518-4.639,0-8.558-1.878-8.758-7Z" style="fill: #181716"/>
    <path d="M1266.393,1007.555c6.558,0,10.038,4.758,10.038,10.838,0,6.039-3.48,10.8-10.038,10.8s-10.039-4.758-10.039-10.8C1256.354,1012.313,1259.833,1007.555,1266.393,1007.555Zm0,18.636c3.558,0,6.438-2.8,6.438-7.8,0-5.039-2.88-7.839-6.438-7.839s-6.44,2.8-6.44,7.839C1259.953,1023.392,1262.833,1026.191,1266.393,1026.191Z" style="fill: #181716"/>
    <path d="M1280.634,1000.155h3.4v28.556h-3.4Z" style="fill: #181716"/>
    <path d="M1307.63,1028.631a4.59,4.59,0,0,1-2.441.559c-1.759,0-2.878-.959-2.878-3.2a9.176,9.176,0,0,1-7.28,3.2c-3.759,0-6.839-1.679-6.839-5.8,0-4.679,3.48-5.679,7-6.359,3.76-.72,6.959-.48,6.959-3.04,0-2.959-2.439-3.439-4.6-3.439-2.879,0-5,.88-5.159,3.92h-3.4c.2-5.12,4.16-6.919,8.759-6.919,3.72,0,7.759.84,7.759,5.678v10.639c0,1.6,0,2.319,1.08,2.319a2.926,2.926,0,0,0,1.04-.2Zm-5.52-10.6c-1.319.959-3.879,1-6.159,1.4-2.239.4-4.159,1.2-4.159,3.719,0,2.24,1.92,3.039,4,3.039,4.48,0,6.319-2.8,6.319-4.679Z" style="fill: #181716"/>
    <path d="M1314.392,1004.315h-3.4v-4.16h3.4Zm-3.4,3.719h3.4v20.677h-3.4Z" style="fill: #181716"/>
    <path d="M1319.552,1008.034h3.2v4.36h.08c1.64-3.32,3.92-4.959,7.6-4.839v3.6c-5.479,0-7.479,3.119-7.479,8.359v9.2h-3.4Z" style="fill: #181716"/>
    <path d="M1349.908,1022.152c-.92,4.559-4.2,7.038-8.838,7.038-6.6,0-9.718-4.558-9.919-10.878,0-6.2,4.08-10.757,9.719-10.757,7.318,0,9.559,6.839,9.359,11.838h-15.478c-.12,3.6,1.92,6.8,6.439,6.8,2.8,0,4.759-1.359,5.359-4.039Zm-3.279-5.759a5.949,5.949,0,0,0-5.959-5.839c-3.56,0-5.679,2.679-5.919,5.839Z" style="fill: #181716"/>
    <path d="M1382.508,1022.152c-.92,4.559-4.2,7.038-8.838,7.038-6.6,0-9.719-4.558-9.919-10.878,0-6.2,4.08-10.757,9.719-10.757,7.318,0,9.558,6.839,9.358,11.838h-15.477c-.121,3.6,1.92,6.8,6.439,6.8,2.8,0,4.759-1.359,5.358-4.039Zm-3.279-5.759a5.95,5.95,0,0,0-5.959-5.839c-3.56,0-5.679,2.679-5.919,5.839Z" style="fill: #181716"/>
    <path d="M1391.069,1008.034h4.12v3h-4.12v12.838c0,1.56.441,1.84,2.56,1.84h1.56v3h-2.6c-3.52,0-4.92-.72-4.92-4.52v-13.157h-3.519v-3h3.519v-6.2h3.4Z" style="fill: #181716"/>
    <path d="M1419.388,1028.711h-3.64l-7.679-20.677h3.8l5.8,17.237h.08l5.639-17.237h3.559Z" style="fill: #181716"/>
    <path d="M1438.988,1007.555c6.559,0,10.038,4.758,10.038,10.838,0,6.039-3.479,10.8-10.038,10.8s-10.039-4.758-10.039-10.8C1428.949,1012.313,1432.429,1007.555,1438.988,1007.555Zm0,18.636c3.559,0,6.439-2.8,6.439-7.8,0-5.039-2.88-7.839-6.439-7.839s-6.439,2.8-6.439,7.839C1432.549,1023.392,1435.429,1026.191,1438.988,1026.191Z" style="fill: #181716"/>
    <path d="M1453.229,1000.155h3.4v28.556h-3.4Z" style="fill: #181716"/>
    <path d="M1475.947,1014.673a4.813,4.813,0,0,0-5.119-4.119c-4.92,0-6.439,3.88-6.439,8.079,0,3.8,1.719,7.558,6.039,7.558,3.279,0,5.239-1.92,5.678-5.039h3.48c-.76,5.039-3.919,8.038-9.118,8.038-6.32,0-9.679-4.4-9.679-10.557,0-6.2,3.2-11.078,9.759-11.078,4.679,0,8.438,2.2,8.918,7.118Z" style="fill: #181716"/>
    <path d="M1501.706,1028.631a4.589,4.589,0,0,1-2.44.559c-1.76,0-2.879-.959-2.879-3.2a9.176,9.176,0,0,1-7.28,3.2c-3.758,0-6.838-1.679-6.838-5.8,0-4.679,3.479-5.679,7-6.359,3.759-.72,6.959-.48,6.959-3.04,0-2.959-2.44-3.439-4.6-3.439-2.879,0-5,.88-5.159,3.92h-3.4c.2-5.12,4.161-6.919,8.759-6.919,3.72,0,7.759.84,7.759,5.678v10.639c0,1.6,0,2.319,1.08,2.319a2.923,2.923,0,0,0,1.04-.2Zm-5.519-10.6c-1.32.959-3.879,1-6.16,1.4-2.239.4-4.159,1.2-4.159,3.719,0,2.24,1.92,3.039,4,3.039,4.48,0,6.32-2.8,6.32-4.679Z" style="fill: #181716"/>
    <path d="M1504.868,1008.034h3.2v3.279h.08a7.2,7.2,0,0,1,6.719-3.758c5.44,0,7.119,3.119,7.119,7.558v13.6h-3.4v-14a3.9,3.9,0,0,0-4.2-4.159c-4.119,0-6.119,2.759-6.119,6.479v11.678h-3.4Z" style="fill: #181716"/>
    <path d="M1530.707,1004.315h-3.4v-4.16h3.4Zm-3.4,3.719h3.4v20.677h-3.4Z" style="fill: #181716"/>
    <path d="M1554.464,1036.63h-3.4v-10.719h-.08c-1.119,2.28-3.758,3.279-6.6,3.279-6.359,0-9.519-5.039-9.519-10.878s3.12-10.757,9.439-10.757c2.12,0,5.159.8,6.678,3.239h.08v-2.76h3.4Zm-9.6-10.439c4.559,0,6.319-3.919,6.319-7.8,0-4.08-1.84-7.839-6.519-7.839-4.64,0-6.2,3.96-6.2,8C1538.467,1022.432,1540.467,1026.191,1544.866,1026.191Z" style="fill: #181716"/>
    <path d="M1576.824,1028.711h-3.2v-3.279h-.08a7.2,7.2,0,0,1-6.719,3.758c-5.439,0-7.119-3.119-7.119-7.558v-13.6h3.4v14a3.9,3.9,0,0,0,4.2,4.159c4.119,0,6.119-2.759,6.119-6.478v-11.679h3.4Z" style="fill: #181716"/>
    <path d="M1599.583,1022.152c-.92,4.559-4.2,7.038-8.838,7.038-6.6,0-9.719-4.558-9.919-10.878,0-6.2,4.08-10.757,9.719-10.757,7.318,0,9.559,6.839,9.358,11.838h-15.477c-.12,3.6,1.92,6.8,6.439,6.8,2.8,0,4.759-1.359,5.359-4.039Zm-3.279-5.759a5.949,5.949,0,0,0-5.959-5.839c-3.56,0-5.679,2.679-5.919,5.839Z" style="fill: #181716"/>
    <path d="M1600.466,1036.63a33.082,33.082,0,0,0,5.279-18.438,33.705,33.705,0,0,0-5.279-18.716h2.6c3.84,6,6.28,11.718,6.28,18.716a31.447,31.447,0,0,1-6.28,18.438Z" style="fill: #181716"/>
  </g>
  <g>
    <path d="M1848.729,843.831c-.28-5.759,3.119-10.038,9.119-10.038,4.959,0,8.879,2.88,8.879,8.159,0,5-3.36,7.519-6.879,9.718-3.561,2.16-7.28,3.96-7.959,7.479h14.556v3H1847.93c.558-6.718,3.959-9.118,7.959-11.6,4.8-2.96,7.238-4.72,7.238-8.639a5.167,5.167,0,0,0-5.481-5.119c-3.958,0-5.638,3.639-5.517,7.038Z" style="fill: #181716"/>
    <path d="M1879.928,833.793c8.879,0,9.437,8.159,9.437,14.437,0,6.24-.558,14.4-9.437,14.4s-9.44-8.158-9.44-14.4C1870.488,841.952,1871.049,833.793,1879.928,833.793Zm0,25.836c5.8,0,5.838-7.2,5.838-11.439,0-4.2-.039-11.4-5.838-11.4s-5.84,7.2-5.84,11.4C1874.088,852.43,1874.129,859.629,1879.928,859.629Z" style="fill: #181716"/>
    <path d="M1892.408,843.831c-.279-5.759,3.119-10.038,9.119-10.038,4.959,0,8.879,2.88,8.879,8.159,0,5-3.359,7.519-6.879,9.718-3.56,2.16-7.279,3.96-7.959,7.479h14.557v3h-18.516c.559-6.718,3.959-9.118,7.959-11.6,4.8-2.96,7.239-4.72,7.239-8.639a5.167,5.167,0,0,0-5.481-5.119c-3.959,0-5.638,3.639-5.517,7.038Z" style="fill: #181716"/>
    <path d="M1923.646,833.793c8.879,0,9.44,8.159,9.44,14.437,0,6.24-.561,14.4-9.44,14.4s-9.437-8.158-9.437-14.4C1914.209,841.952,1914.768,833.793,1923.646,833.793Zm0,25.836c5.8,0,5.84-7.2,5.84-11.439,0-4.2-.041-11.4-5.84-11.4s-5.837,7.2-5.837,11.4C1917.809,852.43,1917.848,859.629,1923.646,859.629Z" style="fill: #181716"/>
  </g>
  <g>
    <path d="M85.566,862.148h-3.4V841.832H74.808v-2.72c3.88,0,7.4-1.04,8.159-5.319h2.6Z" style="fill: #181716"/>
    <path d="M104.126,833.793c6.2,0,8.6,3.64,8.6,7.239a6.566,6.566,0,0,1-3.919,5.879c3.4,1.08,5.039,3.56,5.039,7.079,0,5.479-4.159,8.638-9.4,8.638-5.44,0-9.639-2.839-9.639-8.638a7.157,7.157,0,0,1,4.96-7.079,6.409,6.409,0,0,1-3.96-5.879C95.808,836.353,99.768,833.793,104.126,833.793Zm.321,25.836a5.478,5.478,0,0,0,5.8-5.52,5.584,5.584,0,0,0-5.839-5.4c-3.36,0-6,2.159-6,5.438C98.408,857.549,100.927,859.629,104.447,859.629Zm0-13.918a4.355,4.355,0,0,0,4.679-4.559c0-2.84-2-4.359-4.759-4.359-2.72,0-4.96,1.519-4.96,4.359C99.407,844.271,101.647,845.711,104.447,845.711Z" style="fill: #181716"/>
    <path d="M133.846,837.272H122.408l-1.52,8.16.08.08a7.169,7.169,0,0,1,5.279-2.04c5.039,0,9.158,3.239,9.158,9.717,0,4.8-3.319,9.439-9.918,9.439-4.919,0-8.919-3-9.038-8.118h3.4c.2,2.92,2.56,5.119,5.959,5.119,3.239,0,6-2.2,6-6.719a6.141,6.141,0,0,0-6.4-6.439,6.808,6.808,0,0,0-5.279,2.679l-2.92-.16,2.64-14.717h14Z" style="fill: #181716"/>
    <path d="M148.047,833.793c8.878,0,9.438,8.159,9.438,14.437,0,6.24-.56,14.4-9.438,14.4s-9.439-8.158-9.439-14.4C138.608,841.952,139.168,833.793,148.047,833.793Zm0,25.836c5.8,0,5.839-7.2,5.839-11.439,0-4.2-.04-11.4-5.839-11.4s-5.839,7.2-5.839,11.4C142.208,852.43,142.248,859.629,148.047,859.629Z" style="fill: #181716"/>
  </g>
  <g>
    <path d="M608.46,862.148h-3.4V841.832H597.7v-2.72c3.879,0,7.4-1.04,8.158-5.319h2.6Z" style="fill: #181716"/>
    <path d="M621.421,855.31c.24,2.759,2.48,4.319,5.2,4.319,4.16,0,6.2-3.64,6.4-10.958l-.08-.08a7.433,7.433,0,0,1-6.559,3.919c-5.759,0-8.958-3.879-8.958-9.479,0-5.478,3.839-9.238,9.318-9.238,5.28,0,9.718,2.84,9.718,13.558,0,9.8-2.959,15.277-9.838,15.277-4.759,0-8.159-2.44-8.6-7.318Zm5.159-18.517c-4.039,0-5.559,3.239-5.559,6.719a5.808,5.808,0,0,0,5.6,6c3.56,0,5.8-2.88,5.8-6.24C632.419,839.792,630.379,836.793,626.58,836.793Z" style="fill: #181716"/>
    <path d="M649.061,833.793c8.878,0,9.438,8.159,9.438,14.437,0,6.24-.56,14.4-9.438,14.4s-9.439-8.158-9.439-14.4C639.622,841.952,640.182,833.793,649.061,833.793Zm0,25.836c5.8,0,5.838-7.2,5.838-11.439,0-4.2-.04-11.4-5.838-11.4s-5.839,7.2-5.839,11.4C643.222,852.43,643.262,859.629,649.061,859.629Z" style="fill: #181716"/>
    <path d="M670.9,833.793c8.879,0,9.439,8.159,9.439,14.437,0,6.24-.56,14.4-9.439,14.4s-9.438-8.158-9.438-14.4C661.462,841.952,662.022,833.793,670.9,833.793Zm0,25.836c5.8,0,5.839-7.2,5.839-11.439,0-4.2-.04-11.4-5.839-11.4s-5.838,7.2-5.838,11.4C665.062,852.43,665.1,859.629,670.9,859.629Z" style="fill: #181716"/>
  </g>
  <g>
    <path d="M1131.333,862.148h-3.4V841.832h-7.359v-2.72c3.879,0,7.4-1.04,8.158-5.319h2.6Z" style="fill: #181716"/>
    <path d="M1144.3,855.31c.239,2.759,2.479,4.319,5.2,4.319,4.159,0,6.2-3.64,6.4-10.958l-.081-.08a7.43,7.43,0,0,1-6.558,3.919c-5.759,0-8.959-3.879-8.959-9.479,0-5.478,3.84-9.238,9.318-9.238,5.28,0,9.719,2.84,9.719,13.558,0,9.8-2.959,15.277-9.838,15.277-4.76,0-8.159-2.44-8.6-7.318Zm5.159-18.517c-4.04,0-5.559,3.239-5.559,6.719a5.808,5.808,0,0,0,5.6,6c3.559,0,5.8-2.88,5.8-6.24C1155.293,839.792,1153.253,836.793,1149.454,836.793Z" style="fill: #181716"/>
    <path d="M1179.572,837.272h-11.438l-1.52,8.16.08.08a7.172,7.172,0,0,1,5.28-2.04c5.039,0,9.158,3.239,9.158,9.717,0,4.8-3.32,9.439-9.918,9.439-4.919,0-8.919-3-9.039-8.118h3.4c.2,2.92,2.56,5.119,5.959,5.119,3.24,0,6-2.2,6-6.719a6.141,6.141,0,0,0-6.4-6.439,6.809,6.809,0,0,0-5.28,2.679l-2.919-.16,2.639-14.717h14Z" style="fill: #181716"/>
    <path d="M1193.773,833.793c8.879,0,9.439,8.159,9.439,14.437,0,6.24-.56,14.4-9.439,14.4s-9.438-8.158-9.438-14.4C1184.335,841.952,1184.9,833.793,1193.773,833.793Zm0,25.836c5.8,0,5.839-7.2,5.839-11.439,0-4.2-.04-11.4-5.839-11.4s-5.838,7.2-5.838,11.4C1187.935,852.43,1187.975,859.629,1193.773,859.629Z" style="fill: #181716"/>
  </g>
  <g>
    <path d="M1641.729,843.831c-.28-5.759,3.119-10.038,9.119-10.038,4.959,0,8.879,2.88,8.879,8.159,0,5-3.36,7.519-6.879,9.718-3.561,2.16-7.28,3.96-7.959,7.479h14.556v3H1640.93c.558-6.718,3.959-9.118,7.959-11.6,4.8-2.96,7.238-4.72,7.238-8.639a5.167,5.167,0,0,0-5.481-5.119c-3.958,0-5.638,3.639-5.517,7.038Z" style="fill: #181716"/>
    <path d="M1672.928,833.793c8.879,0,9.437,8.159,9.437,14.437,0,6.24-.558,14.4-9.437,14.4s-9.44-8.158-9.44-14.4C1663.488,841.952,1664.049,833.793,1672.928,833.793Zm0,25.836c5.8,0,5.838-7.2,5.838-11.439,0-4.2-.039-11.4-5.838-11.4s-5.84,7.2-5.84,11.4C1667.088,852.43,1667.129,859.629,1672.928,859.629Z" style="fill: #181716"/>
    <path d="M1694.768,833.793c8.878,0,9.437,8.159,9.437,14.437,0,6.24-.559,14.4-9.437,14.4s-9.44-8.158-9.44-14.4C1685.328,841.952,1685.889,833.793,1694.768,833.793Zm0,25.836c5.8,0,5.837-7.2,5.837-11.439,0-4.2-.039-11.4-5.837-11.4s-5.84,7.2-5.84,11.4C1688.928,852.43,1688.969,859.629,1694.768,859.629Z" style="fill: #181716"/>
    <path d="M1716.646,833.793c8.879,0,9.44,8.159,9.44,14.437,0,6.24-.561,14.4-9.44,14.4s-9.437-8.158-9.437-14.4C1707.209,841.952,1707.768,833.793,1716.646,833.793Zm0,25.836c5.8,0,5.84-7.2,5.84-11.439,0-4.2-.041-11.4-5.84-11.4s-5.837,7.2-5.837,11.4C1710.809,852.43,1710.848,859.629,1716.646,859.629Z" style="fill: #181716"/>
  </g>
  <line x1="104.535" y1="807.053" x2="1894.356" y2="807.053" style="fill: none;stroke: #181716;stroke-linejoin: round;stroke-width: 2.39294958909229px"/>
  <line x1="105.475" y1="697.19" x2="116.66" y2="697.19" style="fill: none;stroke: #181716;stroke-linejoin: round;stroke-width: 2.38386807377609px"/>
  <line x1="105.475" y1="587.326" x2="116.66" y2="587.326" style="fill: none;stroke: #181716;stroke-linejoin: round;stroke-width: 2.38386807377609px"/>
  <line x1="105.475" y1="477.463" x2="116.66" y2="477.463" style="fill: none;stroke: #181716;stroke-linejoin: round;stroke-width: 2.38386807377609px"/>
  <line x1="105.475" y1="257.732" x2="116.66" y2="257.732" style="fill: none;stroke: #181716;stroke-linejoin: round;stroke-width: 2.38386807377609px"/>
  <line x1="105.475" y1="367.6" x2="116.66" y2="367.6" style="fill: none;stroke: #181716;stroke-linejoin: round;stroke-width: 2.38386807377609px"/>
  <line x1="105.475" y1="147.869" x2="116.66" y2="147.869" style="fill: none;stroke: #181716;stroke-linejoin: round;stroke-width: 2.38386807377609px"/>
  <g style="opacity: 0.5">
    <polygon points="1882.486 614.512 1871.211 631.87 1859.946 627.53 1852.432 642.716 1841.158 631.87 1829.892 610.171 1818.618 623.189 1811.105 640.548 1799.83 634.039 1788.565 636.207 1777.291 640.548 1766.025 623.189 1758.512 627.53 1747.237 631.87 1735.972 629.698 1724.697 627.53 1717.184 625.361 1705.91 616.68 1694.644 642.716 1683.37 621.021 1672.104 631.87 1664.591 668.752 1653.317 640.548 1642.042 649.225 1630.777 649.225 1619.503 653.566 1611.989 677.429 1600.724 688.279 1589.449 638.375 1578.175 621.021 1570.662 636.207 1559.396 647.057 1548.122 636.207 1536.856 638.375 1525.582 634.039 1518.069 644.884 1506.794 655.734 1495.529 625.361 1484.254 608.003 1476.741 612.343 1465.476 614.512 1454.201 625.361 1442.936 625.361 1431.661 631.87 1424.148 627.53 1412.874 618.852 1401.608 623.189 1390.334 618.852 1379.068 614.512 1371.555 625.361 1360.281 629.698 1349.006 638.375 1337.741 642.716 1330.227 640.548 1318.953 644.884 1307.688 649.225 1296.413 629.698 1285.139 625.361 1277.626 614.512 1266.36 612.343 1255.086 601.494 1243.82 629.698 1236.307 608.003 1225.033 623.189 1213.758 634.039 1202.493 608.003 1191.218 610.171 1183.705 612.343 1172.439 623.189 1161.165 612.343 1149.9 634.039 1142.378 636.207 1131.112 625.361 1119.838 603.662 1108.572 610.171 1097.298 623.189 1089.784 627.53 1078.519 618.852 1067.245 614.512 1055.97 614.512 1044.705 616.68 1037.192 614.512 1025.917 627.53 1014.652 612.343 1003.377 629.698 995.864 616.68 984.589 634.039 973.324 627.53 962.05 623.189 950.784 623.189 943.271 629.698 931.996 629.698 920.722 616.68 909.456 625.361 901.943 618.852 890.669 623.189 879.403 627.53 868.129 618.852 856.864 618.852 849.341 614.512 838.076 614.512 826.801 605.834 815.536 616.68 804.262 618.852 796.748 631.87 785.483 651.393 774.209 644.884 762.934 636.207 755.421 616.68 744.155 621.021 732.881 621.021 721.615 636.207 710.341 631.87 702.828 647.057 691.554 625.361 680.288 642.716 669.014 666.584 661.5 614.512 650.235 623.189 638.96 610.171 627.686 614.512 616.421 623.189 608.907 627.53 597.633 623.189 586.367 618.852 575.093 623.189 567.58 627.53 556.305 634.039 545.04 651.393 533.765 629.698 522.5 634.039 514.987 636.207 503.712 636.207 492.447 666.584 481.172 673.092 469.898 712.142 462.385 642.716 451.119 614.512 439.845 625.361 428.579 618.852 421.066 612.343 409.792 610.171 398.517 612.343 387.252 614.512 375.977 608.003 368.464 621.021 357.199 616.68 345.924 616.68 334.65 608.003 327.137 627.53 315.871 621.021 304.597 616.68 293.331 623.189 282.057 612.343 274.544 618.852 263.278 616.68 252.004 621.021 240.73 634.039 229.464 621.021 221.951 629.698 210.676 625.361 199.411 621.021 188.136 621.021 180.623 616.68 169.349 614.512 158.083 640.548 146.809 642.716 135.543 627.53 128.03 612.343 116.756 618.852 116.756 542.917 128.03 545.085 135.543 536.408 146.809 547.254 158.083 551.594 169.349 547.254 180.623 534.236 188.136 534.236 199.411 534.236 210.676 536.408 221.951 527.727 229.464 538.576 240.73 551.594 252.004 553.763 263.278 547.254 274.544 542.917 282.057 534.236 293.331 527.727 304.597 527.727 315.871 547.254 327.137 534.236 334.65 545.085 345.924 529.899 357.199 545.085 368.464 540.745 375.977 534.236 387.252 534.236 398.517 540.745 409.792 549.422 421.066 547.254 428.579 540.745 439.845 538.576 451.119 538.576 462.385 536.408 469.898 573.289 481.172 581.967 492.447 562.44 503.712 562.44 514.987 560.271 522.5 536.408 533.765 551.594 545.04 551.594 556.305 555.931 567.58 529.899 575.093 538.576 586.367 534.236 597.633 538.576 608.907 532.067 616.421 538.576 627.686 527.727 638.96 527.727 650.235 534.236 661.5 540.745 669.014 542.917 680.288 545.085 691.554 551.594 702.828 538.576 710.341 529.899 721.615 523.39 732.881 499.523 744.155 514.709 755.421 512.541 762.934 542.917 774.209 549.422 785.483 547.254 796.748 521.218 804.262 529.899 815.536 512.541 826.801 534.236 838.076 510.372 849.341 516.881 856.864 516.881 868.129 514.709 879.403 519.049 890.669 523.39 901.943 516.881 909.456 519.049 920.722 516.881 931.996 508.2 943.271 519.049 950.784 523.39 962.05 527.727 973.324 523.39 984.589 521.218 995.864 514.709 1003.377 527.727 1014.652 506.031 1025.917 512.541 1037.192 499.523 1044.705 508.2 1055.97 519.049 1067.245 516.881 1078.519 514.709 1089.784 519.049 1097.298 534.236 1108.572 527.727 1119.838 501.695 1131.112 510.372 1142.378 506.031 1149.9 495.186 1161.165 493.013 1172.439 506.031 1183.705 523.39 1191.218 503.863 1202.493 516.881 1213.758 510.372 1225.033 508.2 1236.307 503.863 1243.82 497.354 1255.086 503.863 1266.36 501.695 1277.626 514.709 1285.139 508.2 1296.413 512.541 1307.688 549.422 1318.953 547.254 1330.227 542.917 1337.741 540.745 1349.006 519.049 1360.281 523.39 1371.555 521.218 1379.068 499.523 1390.334 510.372 1401.608 521.218 1412.874 525.558 1424.148 525.558 1431.661 534.236 1442.936 525.558 1454.201 519.049 1465.476 534.236 1476.741 519.049 1484.254 499.523 1495.529 527.727 1506.794 551.594 1518.069 545.085 1525.582 540.745 1536.856 540.745 1548.122 516.881 1559.396 519.049 1570.662 516.881 1578.175 512.541 1589.449 529.899 1600.724 560.271 1611.989 560.271 1619.503 519.049 1630.777 529.899 1642.042 538.576 1653.317 510.372 1664.591 527.727 1672.104 538.576 1683.37 508.2 1694.644 512.541 1705.91 527.727 1717.184 527.727 1724.697 525.558 1735.972 523.39 1747.237 521.218 1758.512 519.049 1766.025 534.236 1777.291 527.727 1788.565 525.558 1799.83 523.39 1811.105 519.049 1818.618 516.881 1829.892 512.541 1841.158 510.372 1852.432 523.39 1859.946 516.881 1871.211 501.695 1882.486 519.049 1882.486 614.512" style="fill: #5fa69e"/>
  </g>
  <g style="opacity: 0.5">
    <polygon points="1882.486 182.763 1882.486 425.759 1871.211 412.741 1859.946 427.928 1852.432 475.659 1841.158 471.318 1829.892 479.995 1818.618 456.132 1811.105 490.845 1799.83 506.031 1788.565 493.013 1777.291 503.863 1766.025 466.981 1758.512 495.186 1747.237 516.881 1735.972 516.881 1724.697 497.354 1717.184 493.013 1705.91 479.995 1694.644 490.845 1683.37 495.186 1672.104 514.712 1664.591 527.727 1653.317 529.899 1642.042 536.408 1630.777 562.44 1619.503 605.834 1611.989 621.02 1600.724 614.512 1589.449 579.798 1578.175 562.44 1570.662 542.917 1559.396 571.121 1548.122 579.798 1536.856 588.476 1525.582 590.648 1518.069 597.157 1506.794 610.171 1495.529 586.307 1484.254 610.171 1476.741 590.648 1465.476 594.985 1454.201 599.325 1442.936 605.834 1431.661 608.002 1424.148 621.02 1412.874 616.68 1401.608 614.512 1390.334 610.171 1379.068 603.666 1371.555 616.68 1360.281 629.698 1349.006 625.361 1337.741 638.379 1330.227 631.87 1318.953 644.888 1307.688 653.565 1296.413 655.734 1285.139 616.68 1277.626 621.02 1266.36 610.171 1255.086 590.648 1243.82 599.325 1236.307 614.512 1225.033 614.512 1213.758 605.834 1202.493 605.834 1191.218 603.666 1183.705 586.307 1172.439 592.816 1161.165 594.985 1149.9 588.476 1142.378 590.648 1131.112 601.494 1119.838 586.307 1108.572 601.494 1097.298 603.666 1089.784 597.157 1078.519 594.985 1067.245 610.171 1055.97 588.476 1044.705 586.307 1037.192 599.325 1025.917 603.666 1014.652 618.852 1003.377 612.343 995.864 599.325 984.589 603.666 973.324 612.343 962.05 597.157 950.784 603.666 943.271 599.325 931.996 597.157 920.722 588.476 909.456 594.985 901.943 603.666 890.669 601.494 879.403 603.666 868.129 603.666 856.864 592.816 849.341 603.666 838.076 605.834 826.801 623.189 815.536 608.002 804.262 640.547 796.748 634.038 785.483 636.207 774.209 655.734 762.934 642.716 755.421 631.87 744.155 627.53 732.881 627.53 721.615 618.852 710.341 638.379 702.828 631.87 691.554 636.207 680.288 644.888 669.014 651.397 661.5 636.207 650.235 608.002 638.96 610.171 627.686 614.512 616.421 616.68 608.907 610.171 597.633 614.512 586.367 610.171 575.093 616.68 567.58 623.189 556.305 655.734 545.04 647.056 533.765 623.189 522.5 638.379 514.987 657.902 503.712 638.379 492.447 647.056 481.172 664.411 469.898 673.092 462.385 625.361 451.119 614.512 439.845 614.512 428.579 634.038 421.066 612.343 409.792 603.666 398.517 603.666 387.252 610.171 375.977 616.68 368.464 616.68 357.199 618.852 345.924 618.852 334.65 614.512 327.137 618.852 315.871 608.002 304.597 605.834 293.331 623.189 282.057 627.53 274.544 634.038 263.278 627.53 252.004 651.397 240.73 647.056 229.464 621.02 221.951 612.343 210.676 618.852 199.411 621.02 188.136 636.207 180.623 636.207 169.349 649.225 158.083 631.87 146.809 629.698 135.543 621.02 128.03 651.397 116.756 660.074 116.756 545.085 128.03 553.762 135.543 542.917 146.809 538.576 158.083 536.408 169.349 547.254 180.623 549.426 188.136 549.426 199.411 551.594 210.676 527.727 221.951 529.899 229.464 549.426 240.73 560.271 252.004 555.935 263.278 553.762 274.544 547.254 282.057 542.917 293.331 545.085 304.597 540.744 315.871 534.236 327.137 538.576 334.65 542.917 345.924 538.576 357.199 547.254 368.464 540.744 375.977 529.899 387.252 523.39 398.517 536.408 409.792 540.744 421.066 527.727 428.579 529.899 439.845 538.576 451.119 538.576 462.385 549.426 469.898 590.648 481.172 586.307 492.447 568.949 503.712 566.78 514.987 545.085 522.5 547.254 533.765 562.44 545.04 551.594 556.305 547.254 567.58 516.881 575.093 534.236 586.367 534.236 597.633 534.236 608.907 538.576 616.421 540.744 627.686 529.899 638.96 536.408 650.235 532.067 661.5 545.085 669.014 568.949 680.288 551.594 691.554 538.576 702.828 540.744 710.341 545.085 721.615 542.917 732.881 532.067 744.155 527.727 755.421 512.54 762.934 545.085 774.209 542.917 785.483 540.744 796.748 527.727 804.262 532.067 815.536 525.558 826.801 516.881 838.076 516.881 849.341 503.863 856.864 499.522 868.129 499.522 879.403 514.712 890.669 519.049 901.943 501.694 909.456 508.204 920.722 495.186 931.996 499.522 943.271 508.204 950.784 506.031 962.05 501.694 973.324 497.354 984.589 508.204 995.864 508.204 1003.377 506.031 1014.652 477.827 1025.917 493.013 1037.192 479.995 1044.705 490.845 1055.97 493.013 1067.245 486.504 1078.519 486.504 1089.784 482.168 1097.298 475.659 1108.572 488.677 1119.838 484.336 1131.112 477.827 1142.378 482.168 1149.9 479.995 1161.165 477.827 1172.439 475.659 1183.705 469.15 1191.218 475.659 1202.493 475.659 1213.758 482.168 1225.033 484.336 1236.307 477.827 1243.82 460.472 1255.086 473.49 1266.36 471.318 1277.626 486.504 1285.139 482.168 1296.413 482.168 1307.688 532.067 1318.953 516.881 1330.227 488.677 1337.741 497.354 1349.006 497.354 1360.281 488.677 1371.555 486.504 1379.068 493.013 1390.334 471.318 1401.608 484.336 1412.874 473.49 1424.148 482.168 1431.661 477.827 1442.936 451.791 1454.201 471.318 1465.476 447.454 1476.741 421.419 1484.254 447.454 1495.529 443.114 1506.794 460.472 1518.069 460.472 1525.582 436.605 1536.856 421.419 1548.122 425.759 1559.396 417.078 1570.662 386.705 1578.175 399.723 1589.449 401.892 1600.724 445.282 1611.989 438.773 1619.503 423.587 1630.777 406.232 1642.042 395.383 1653.317 386.705 1664.591 362.838 1672.104 362.838 1683.37 334.634 1694.644 325.956 1705.91 323.788 1717.184 312.938 1724.697 297.752 1735.972 315.107 1747.237 297.752 1758.512 302.089 1766.025 289.075 1777.291 269.548 1788.565 263.039 1799.83 258.698 1811.105 247.853 1818.618 241.344 1829.892 226.154 1841.158 210.967 1852.432 210.967 1859.946 202.29 1871.211 182.763 1882.486 182.763" style="fill: #e1ba91"/>
  </g>
  <polyline points="1882.486 330.295 1871.211 334.636 1859.946 349.822 1852.432 358.499 1841.158 360.668 1829.892 367.177 1818.618 369.349 1811.105 378.026 1799.83 384.535 1788.565 393.212 1777.291 397.553 1766.025 399.721 1758.512 404.062 1747.237 410.571 1735.972 419.248 1724.697 412.739 1717.184 412.739 1705.91 412.739 1694.644 417.08 1683.37 434.435 1672.104 447.452 1664.591 456.13 1653.317 462.639 1642.042 477.829 1630.777 490.847 1619.503 503.861 1611.989 523.388 1600.724 534.238 1589.449 488.675 1578.175 482.166 1570.662 484.338 1559.396 490.847 1548.122 499.524 1536.856 514.711 1525.582 523.388 1518.069 532.065 1506.794 534.238 1495.529 512.542 1484.254 519.051 1476.741 523.388 1465.476 529.897 1454.201 527.728 1442.936 538.574 1431.661 547.255 1424.148 549.424 1412.874 540.746 1401.608 547.255 1390.334 549.424 1379.068 547.255 1371.555 551.592 1360.281 558.101 1349.006 562.442 1337.741 573.291 1330.227 568.951 1318.953 584.137 1307.688 584.137 1296.413 560.273 1285.139 542.915 1277.626 542.915 1266.36 536.406 1255.086 529.897 1243.82 536.406 1236.307 545.083 1225.033 542.915 1213.758 538.574 1202.493 540.746 1191.218 540.746 1183.705 536.406 1172.439 540.746 1161.165 536.406 1149.9 532.065 1142.378 534.238 1131.112 542.915 1119.838 545.083 1108.572 547.255 1097.298 538.574 1089.784 540.746 1078.519 549.424 1067.245 542.915 1055.97 545.083 1044.705 542.915 1037.192 540.746 1025.917 547.255 1014.652 549.424 1003.377 549.424 995.864 553.764 984.589 555.933 973.324 555.933 962.05 553.764 950.784 549.424 943.271 553.764 931.996 545.083 920.722 549.424 909.456 558.101 901.943 560.273 890.669 562.442 879.403 553.764 868.129 553.764 856.864 558.101 849.341 562.442 838.076 562.442 826.801 566.782 815.536 573.291 804.262 581.969 796.748 586.305 785.483 590.646 774.209 601.496 762.934 594.986 755.421 579.796 744.155 579.796 732.881 577.628 721.615 581.969 710.341 590.646 702.828 592.814 691.554 597.155 680.288 601.496 669.014 614.513 661.5 584.137 650.235 573.291 638.96 568.951 627.686 575.46 616.421 575.46 608.907 575.46 597.633 575.46 586.367 575.46 575.093 571.119 567.58 581.969 556.305 594.986 545.04 594.986 533.765 588.478 522.5 586.305 514.987 590.646 503.712 603.664 492.447 610.173 481.172 625.359 469.898 631.868 462.385 577.628 451.119 577.628 439.845 575.46 428.579 571.119 421.066 573.291 409.792 577.628 398.517 571.119 387.252 571.119 375.977 575.46 368.464 573.291 357.199 581.969 345.924 577.628 334.65 575.46 327.137 577.628 315.871 575.46 304.597 575.46 293.331 579.796 282.057 586.305 274.544 586.305 263.278 588.478 252.004 597.155 240.73 599.323 229.464 584.137 221.951 579.796 210.676 575.46 199.411 584.137 188.136 586.305 180.623 588.478 169.349 592.814 158.083 590.646 146.809 586.305 135.543 586.305 128.03 597.155 116.756 594.986" style="fill: none;stroke: #895a18;stroke-linecap: round;stroke-linejoin: round;stroke-width: 2.93032397199256px"/>
  <polyline points="1882.486 573.289 1871.211 575.458 1859.946 575.458 1852.432 573.289 1841.158 573.289 1829.892 558.103 1818.618 562.44 1811.105 575.458 1799.83 579.799 1788.565 577.63 1777.291 577.63 1766.025 575.458 1758.512 575.458 1747.237 579.799 1735.972 575.458 1724.697 571.121 1717.184 577.63 1705.91 575.458 1694.644 575.458 1683.37 575.458 1672.104 581.967 1664.591 586.308 1653.317 590.644 1642.042 590.644 1630.777 597.153 1619.503 603.662 1611.989 627.53 1600.724 631.87 1589.449 581.967 1578.175 573.289 1570.662 575.458 1559.396 584.139 1548.122 588.476 1536.856 592.816 1525.582 592.816 1518.069 599.326 1506.794 601.494 1495.529 579.799 1484.254 564.612 1476.741 564.612 1465.476 571.121 1454.201 573.289 1442.936 579.799 1431.661 586.308 1424.148 581.967 1412.874 568.949 1401.608 573.289 1390.334 575.458 1379.068 573.289 1371.555 579.799 1360.281 581.967 1349.006 581.967 1337.741 586.308 1330.227 590.644 1318.953 597.153 1307.688 597.153 1296.413 581.967 1285.139 568.949 1277.626 562.44 1266.36 558.103 1255.086 560.271 1243.82 564.612 1236.307 564.612 1225.033 568.949 1213.758 566.781 1202.493 566.781 1191.218 566.781 1183.705 568.949 1172.439 566.781 1161.165 568.949 1149.9 566.781 1142.378 566.781 1131.112 562.44 1119.838 558.103 1108.572 564.612 1097.298 573.289 1089.784 568.949 1078.519 571.121 1067.245 568.949 1055.97 566.781 1044.705 566.781 1037.192 566.781 1025.917 566.781 1014.652 564.612 1003.377 568.949 995.864 571.121 984.589 575.458 973.324 575.458 962.05 571.121 950.784 575.458 943.271 575.458 931.996 571.121 920.722 568.949 909.456 571.121 901.943 573.289 890.669 573.289 879.403 573.289 868.129 573.289 856.864 564.612 849.341 568.949 838.076 573.289 826.801 575.458 815.536 575.458 804.262 579.799 796.748 581.967 785.483 588.476 774.209 599.326 762.934 592.816 755.421 568.949 744.155 573.289 732.881 573.289 721.615 584.139 710.341 586.308 702.828 586.308 691.554 592.816 680.288 592.816 669.014 605.834 661.5 575.458 650.235 579.799 638.96 575.458 627.686 575.458 616.421 579.799 608.907 581.967 597.633 581.967 586.367 586.308 575.093 584.139 567.58 586.308 556.305 594.985 545.04 601.494 533.765 590.644 522.5 588.476 514.987 597.153 503.712 605.834 492.447 610.171 481.172 627.53 469.898 638.375 462.385 584.139 451.119 579.799 439.845 581.967 428.579 579.799 421.066 581.967 409.792 579.799 398.517 577.63 387.252 577.63 375.977 575.458 368.464 577.63 357.199 577.63 345.924 573.289 334.65 577.63 327.137 579.799 315.871 581.967 304.597 579.799 293.331 581.967 282.057 579.799 274.544 577.63 263.278 584.139 252.004 590.644 240.73 594.985 229.464 579.799 221.951 577.63 210.676 579.799 199.411 575.458 188.136 573.289 180.623 575.458 169.349 579.799 158.083 586.308 146.809 577.63 135.543 573.289 128.03 579.799 116.756 581.967" style="fill: none;stroke: #2e7670;stroke-linecap: round;stroke-linejoin: round;stroke-width: 2.93032397199256px"/>
  <polyline points="1893.756 315.108 1882.482 321.617 1871.216 347.653 1859.942 332.466 1852.429 312.939 1841.163 338.971 1829.889 369.348 1818.614 384.534 1811.101 391.043 1799.836 395.384 1788.561 371.516 1777.296 386.703 1766.021 414.911 1758.508 386.703 1747.234 391.043 1735.968 382.366 1724.694 412.738 1717.181 395.384 1705.915 395.384 1694.641 410.57 1683.375 440.943 1672.101 440.943 1664.587 391.043 1653.313 421.42 1642.048 453.961 1630.773 427.925 1619.508 460.469 1611.995 473.487 1600.72 482.165 1589.446 438.774 1578.18 434.434 1570.667 471.319 1559.393 449.624 1548.127 460.469 1536.853 490.846 1525.578 499.523 1518.065 497.355 1506.8 462.642 1495.525 499.523 1484.26 458.301 1476.746 469.147 1465.472 490.846 1454.207 510.373 1442.932 486.505 1431.658 553.763 1424.145 532.068 1412.879 545.086 1401.605 497.355 1390.339 527.727 1379.065 551.595 1371.551 525.559 1360.277 516.878 1349.012 547.255 1337.737 534.237 1330.224 540.745 1318.958 551.595 1307.684 575.459 1296.41 521.219 1285.144 527.727 1277.631 519.05 1266.357 534.237 1255.091 523.387 1243.817 519.05 1236.303 521.219 1225.029 568.95 1213.763 555.932 1202.489 542.914 1191.224 501.692 1183.71 514.71 1172.436 529.896 1161.171 564.609 1149.896 547.255 1142.383 545.086 1131.108 532.068 1119.843 542.914 1108.569 510.373 1097.303 484.337 1089.79 510.373 1078.516 516.878 1067.241 508.201 1055.975 506.032 1044.701 525.559 1037.188 523.387 1025.922 523.387 1014.648 555.932 1003.374 564.609 995.86 555.932 984.595 586.308 973.32 551.595 962.055 542.914 950.78 555.932 943.267 599.322 931.993 564.609 920.727 566.781 909.453 545.086 901.94 573.29 890.674 579.799 879.4 581.968 868.134 586.308 856.86 568.95 849.347 577.627 838.072 586.308 826.807 597.154 815.533 629.699 804.267 603.663 796.754 555.932 785.479 566.781 774.205 608.003 762.939 614.513 755.426 629.699 744.152 625.358 732.886 631.867 721.612 621.021 710.338 612.34 702.824 579.799 691.559 597.154 680.284 636.208 669.019 621.021 661.506 601.495 650.231 571.118 638.957 560.272 627.691 581.968 616.417 608.003 608.904 564.609 597.638 564.609 586.364 597.154 575.098 605.831 567.576 610.172 556.311 610.172 545.036 592.817 533.771 616.681 522.496 560.272 514.983 586.308 503.718 621.021 492.443 608.003 481.169 612.34 469.903 612.34 462.39 584.136 451.116 571.118 439.85 560.272 428.576 577.627 421.063 566.781 409.788 514.71 398.523 525.559 387.248 594.986 375.983 586.308 368.469 588.477 357.195 581.968 345.921 579.799 334.655 586.308 327.142 579.799 315.868 571.118 304.602 571.118 293.328 573.29 282.062 573.29 274.54 577.627 263.275 594.986 252 584.136 240.735 616.681 229.46 603.663 221.947 597.154 210.681 568.95 199.407 592.817 188.133 616.681 180.619 594.986 169.354 573.29 158.08 573.29 146.814 575.459 135.54 566.781 128.026 573.29 116.752 597.154" style="fill: none;stroke: #010102;stroke-linecap: round;stroke-linejoin: round;stroke-width: 2.93032397199256px"/>
  <line x1="117.648" y1="146.668" x2="117.648" y2="817.26" style="fill: none;stroke: #181716;stroke-width: 2.38386807377609px"/>
</svg>
