<svg xmlns="http://www.w3.org/2000/svg" xmlns:xlink="http://www.w3.org/1999/xlink" width="500" zoomAndPan="magnify" viewBox="0 0 375 374.999991" height="500" preserveAspectRatio="xMidYMid meet" version="1.0"><defs><clipPath id="ce6492a108"><path d="M 3 0 L 375 0 L 375 271.5 L 3 271.5 Z M 3 0 " clip-rule="nonzero"/></clipPath></defs><g clip-path="url(#ce6492a108)"><path fill="#178f96" d="M 282.023438 207.707031 C 266.167969 210.855469 251.859375 213.832031 237.527344 216.511719 C 212.011719 221.28125 186.34375 224.996094 160.359375 225.660156 C 152.789062 225.855469 145.117188 223.816406 137.644531 224.480469 C 121.148438 225.90625 105.121094 222.5625 89.066406 220.398438 C 76.160156 218.652344 63.226562 215.183594 50.984375 210.660156 C 25.761719 201.339844 11.382812 182.402344 6.242188 156.0625 C 0.195312 125.152344 5.113281 96.105469 20.378906 68.710938 C 34.613281 43.136719 54.28125 22.15625 76.332031 3.269531 C 77.757812 2.066406 79.476562 1.179688 81.148438 0.320312 C 81.59375 0.0742188 82.378906 0.46875 82.992188 0.566406 C 89.679688 13.425781 87.960938 26.511719 79.035156 37.578125 C 65.761719 54.03125 52.484375 70.53125 40.019531 87.597656 C 31.121094 99.769531 24.410156 113.347656 19.691406 127.832031 C 17.035156 135.921875 18.214844 142.683594 23.378906 149.421875 C 30.628906 158.816406 39.773438 165.605469 50.320312 170.671875 C 64.949219 177.703125 80.558594 181.171875 96.5625 183.1875 C 122.84375 186.460938 149.074219 185.082031 175.304688 182.523438 C 214.9375 178.664062 253.976562 171.335938 292.621094 161.917969 C 295.03125 161.324219 297.316406 160.292969 301.691406 158.71875 C 296.800781 157.171875 293.898438 156.136719 290.972656 155.300781 C 276.175781 151.046875 261.300781 147.011719 246.574219 142.585938 C 233.054688 138.527344 231.921875 136.609375 233.128906 122.789062 C 234.652344 105.183594 236.496094 103.855469 253.605469 107.542969 C 277.132812 112.632812 300.585938 117.945312 324.210938 122.570312 C 337.414062 125.152344 350.859375 126.527344 364.183594 128.496094 C 367.257812 128.9375 370.28125 129.625 373.894531 130.316406 C 373.773438 138.898438 374.535156 146.816406 373.304688 154.414062 C 371.363281 166.390625 367.304688 177.089844 355.703125 184.320312 C 342.96875 192.261719 331.511719 202.222656 319.441406 211.25 C 305.453125 221.699219 293.703125 234.390625 283.105469 248.113281 C 280.058594 252.070312 278.238281 257.015625 275.953125 261.539062 C 274.453125 264.515625 273.148438 267.566406 271.355469 271.5 C 266.191406 266.113281 265.773438 260.925781 266.070312 255.464844 C 266.757812 241.742188 270.445312 228.929688 277.207031 217.003906 C 278.632812 214.296875 279.984375 211.566406 282.023438 207.707031 Z M 216.632812 215.28125 C 219.632812 215.503906 222.730469 216.316406 225.605469 215.824219 C 239.296875 213.460938 252.941406 210.757812 266.636719 208.050781 C 271.40625 206.773438 276.175781 205.492188 280.945312 204.214844 C 280.722656 203.601562 280.5 202.984375 280.28125 202.394531 C 275.683594 204.363281 271.085938 206.355469 266.488281 208.320312 C 263.808594 208.101562 261.007812 207.289062 258.425781 207.730469 C 244.410156 210.140625 230.472656 212.871094 216.484375 215.550781 C 210.804688 216.363281 205.125 217.175781 199.449219 217.988281 C 199.644531 218.773438 199.839844 219.585938 200.039062 220.371094 C 205.570312 218.675781 211.101562 216.980469 216.632812 215.28125 Z M 170.585938 222.757812 C 170.636719 222.289062 170.683594 221.796875 170.710938 221.332031 C 169.308594 221.378906 167.929688 221.453125 166.53125 221.503906 C 166.53125 221.847656 166.53125 222.167969 166.53125 222.511719 C 167.859375 222.585938 169.234375 222.660156 170.585938 222.757812 Z M 170.585938 222.757812 " fill-opacity="1" fill-rule="nonzero"/></g></svg>