<?xml version="1.0" encoding="utf-8"?>
<!-- Generator: Adobe Illustrator 27.0.0, SVG Export Plug-In . SVG Version: 6.00 Build 0)  -->
<svg version="1.1" id="Capa_1" xmlns="http://www.w3.org/2000/svg" xmlns:xlink="http://www.w3.org/1999/xlink" x="0px" y="0px"
	 viewBox="0 0 1920 1080" style="enable-background:new 0 0 1920 1080;" xml:space="preserve">
<style type="text/css">
	.st0{fill:none;stroke:#00A89C;stroke-width:15;stroke-miterlimit:10;}
	.st1{fill:#00A89C;stroke:#00A89C;stroke-width:15;stroke-miterlimit:10;}
</style>
<g id="Capa_8">
	<path class="st0" d="M902.9,539.5c0-31.8,19.8-58.9,47.7-69.9c3.8-1.5,6.3-5.2,6.3-9.3V307.5c0-5.1-1.9-10-5.5-13.5
		c-2.2-2.2-4.4-3.2-6.1-3.7c-25.1-7.3-70.3,42.3-89.5,97.5c-3,8.7-6.4,17.4-10.2,25.8c-6.5,14.1-6,16.4-21.7,47.9
		c-8.3,16.6-16.8,32.6-20.8,45.5c0,0-8.5,29.5-6.2,61.5c5.2,72.2,69,144,147.3,146.2c6.9,0.2,12.7-5.3,12.7-12.2v-83.8
		c0-4.1-2.5-7.8-6.3-9.3C922.7,598.4,902.9,571.3,902.9,539.5z"/>
</g>
<g id="Capa_12">
	<path class="st0" d="M1014.6,664.7c-6.9,0.2-12.7-5.3-12.7-12.2v-33.8c0-4.1,2.5-7.8,6.3-9.3c27.9-10.9,47.7-38.1,47.7-69.8
		s-19.8-58.9-47.7-69.9c-3.8-1.5-6.3-5.2-6.3-9.3v-94.9c0-5.1,1.9-10,5.5-13.5c2.2-2.2,4.4-3.2,6.1-3.7"/>
</g>
<g id="Capa_6">
	<path class="st1" d="M1118.6,510.2c-3-9.6-9.3-21.6-15.5-33.9c-11.6-23.3-11.4-25.2-16.1-35.5c-2.7-6-5.2-12.1-7.3-18.4
		c-14-41.6-48.2-79.3-67.1-73.8c-1.3,0.4-2.9,1.1-4.6,2.8c-2.7,2.6-4.1,6.3-4.1,10l12,99c0,3.8,1.9,7.3,5.1,9.3
		c23,14.9,38.3,40.7,38.3,70.2c0,29.5-15.3,55.3-38.3,70.2c-3.2,2-5.1,5.6-5.1,9.3l-12,36.5c0,5.2,4.3,9.3,9.5,9.1
		c58.4-1.6,106-55.2,109.9-109C1124.9,532.1,1118.6,510.2,1118.6,510.2z"/>
</g>
</svg>
